<svg width="72" height="72" viewBox="0 0 72 72" fill="none" xmlns="http://www.w3.org/2000/svg">
<path d="M34.474 46.3267C33.8008 44.8068 33.813 42.2392 34.1442 39.3088C34.2205 39.7408 34.3113 40.2139 34.4142 40.7438C34.8556 42.9967 34.7886 45.0004 34.474 46.3267Z" fill="#F24690"/>
<path d="M64.3432 57.3839C62.1458 57.9016 54.9955 59.1307 47.1251 60.2193C42.8728 60.8083 39.5752 61.2273 37.1992 60.9746C35.0752 60.7507 33.6856 59.9939 33.0067 58.3523C32.6402 57.4667 32.8476 56.2708 33.2522 54.9647C33.7032 55.4239 34.1842 55.8525 34.6922 56.2478C36.408 57.5848 38.6176 58.168 40.7488 57.7259C40.7769 57.7202 40.8043 57.7137 40.8323 57.7065C45.9299 56.5891 47.1871 50.6296 47.1871 50.6296C47.7883 49.2861 48.4831 47.5689 49.1908 45.8308C49.5962 44.8415 50.0095 43.8443 50.4148 42.9069C50.5379 42.628 50.6461 42.3427 50.7388 42.0523C51.2846 40.3091 50.4321 40.2667 49.931 40.4805C49.5883 40.6245 49.139 41.1141 48.6789 41.7153C47.8459 42.8083 46.9919 44.2763 46.7349 44.7544C46.3324 45.496 45.7269 45.5961 45.5188 44.7616C45.4288 44.4016 45.7125 43.336 46.0811 42.0724C46.57 40.3941 47.2079 38.3687 47.3152 37.2002C47.5017 35.1539 46.3072 35.2382 45.7391 35.7494C45.1711 36.2606 43.4668 41.4064 43.0751 42.3964C43.0291 42.5123 42.9837 42.6218 42.9391 42.7211C42.605 43.4714 42.3026 43.7428 41.9066 43.2532C41.8303 43.1582 41.7835 42.8932 41.7626 42.5123C41.6416 40.6634 42.0175 36.0705 41.8151 34.7637C41.5718 33.1869 40.4263 33.1523 39.8711 33.9861C39.4211 34.6579 39.2498 38.2341 39.1475 40.2998C39.1223 40.793 39.1022 41.1998 39.082 41.4611C38.9791 42.8183 38.6047 43.3331 37.8487 42.6909C37.0927 42.0487 36.7773 38.4479 36.1862 36.8445C35.8262 35.8624 35.2502 35.2886 34.762 35.1165C35.0284 33.5901 35.3301 32.0515 35.626 30.5805C35.9385 29.0217 36.2424 27.5407 36.49 26.2331C37.1784 22.2681 37.6557 19.2491 37.7796 18.6184C37.9732 17.6486 38.5658 16.7903 39.6746 16.8861C40.7834 16.9819 41.1815 18.0561 41.3587 18.6861C41.5358 19.3161 41.0102 28.4781 41.1427 29.4407C41.2751 30.4034 41.2283 31.3221 42.0369 31.7296C42.8455 32.1371 43.5676 31.7167 44.0579 30.3256C44.2927 29.6546 48.5378 18.4809 48.8668 17.2281C49.1959 15.9753 50.4789 14.4791 51.7353 15.1653C53.2012 15.9695 52.996 16.7205 52.7743 18.4413C52.5525 20.1621 48.1663 32.1933 48.1663 33.3453C48.1663 34.4973 49.2787 34.876 49.9195 33.9681C50.5603 33.0602 54.6657 26.0049 56.033 23.7175C57.4003 21.43 60.0347 16.9595 62.086 18.3952C63.814 19.5969 62.7283 21.4653 59.2607 27.3319C57.406 30.4711 53.009 36.8071 53.7131 38.4479C54.4173 40.0888 61.0363 32.2667 62.7002 30.7511C64.3641 29.2355 65.9128 27.2642 67.3082 28.4018C68.7035 29.5394 67.6955 31.6079 65.5931 34.084C63.4907 36.5601 56.4938 45.0719 55.5355 46.6387C54.5771 48.2054 54.2337 50.0947 55.8559 51.7197C57.478 53.3447 62.8139 52.3864 65.6651 53.6709C68.5163 54.9554 66.5414 56.8648 64.3432 57.3839Z" fill="#F24690"/>
<path d="M40.8334 57.7055C39.7922 59.2132 38.8771 59.9526 37.6229 60.7259C37.4789 60.8123 37.3392 60.8951 37.1974 60.9736C33.5254 62.9795 29.4934 61.9434 26.3484 59.4198C22.554 56.3757 15.7097 47.2144 15.1704 46.6161C13.8053 45.0976 5.47127 37.2683 4.78007 36.5627C4.08887 35.8571 3.71735 34.8801 4.42439 34.019C5.13143 33.1578 6.24095 33.443 6.86015 33.6525C7.47935 33.862 14.7391 39.4845 15.6103 39.9165C16.4815 40.3485 17.2073 40.9101 17.9993 40.4745C18.7913 40.0389 18.8554 39.2066 17.9849 38.0114C17.5658 37.4354 10.7575 27.6153 9.91007 26.6354C9.06263 25.6554 8.55575 23.751 9.83807 23.1074C11.3306 22.3514 11.8332 22.9446 13.1263 24.1038C14.4194 25.263 21.1046 34.4963 22.0543 35.1501C23.004 35.8038 23.9465 35.099 23.5627 34.0578C23.1789 33.0167 20.4343 26.8262 19.3234 24.4098C18.2124 21.9935 16.0157 17.2797 18.3593 16.3984C20.3278 15.6597 21.2544 17.608 24.1265 23.787C25.6622 27.0926 28.3975 34.299 30.1514 34.6504C31.9054 35.0018 29.201 25.1147 28.8929 22.8849C28.5847 20.655 27.8366 18.2632 29.5661 17.7534C31.2955 17.2437 32.4237 19.2525 33.2741 22.3874C33.6974 23.9476 34.6651 27.3489 35.6242 30.5802C36.5926 33.8469 37.553 36.9393 37.9318 37.7802C38.3573 38.7278 38.6683 39.5514 39.1442 40.3002C39.119 40.7934 39.0989 41.2002 39.0787 41.4616C38.9758 42.8188 38.6014 43.3336 37.8454 42.6914C37.0894 42.0491 36.7754 38.4477 36.1843 36.8442C35.8243 35.8622 35.2483 35.2883 34.7602 35.1162C34.4534 35.0054 34.1842 35.055 34.0222 35.2638C33.6622 35.7297 33.6398 36.5231 34.1431 39.3095C34.2194 39.7415 34.3102 40.2146 34.4131 40.7445C34.8545 42.9974 34.7875 45.0004 34.4729 46.3274C34.2338 47.3354 33.8501 47.9574 33.4375 47.9978C32.4842 48.0906 31.6469 45.9882 29.9095 44.6699C28.1722 43.3516 27.036 44.5259 27.5695 46.0638C28.103 47.6018 29.6755 48.5529 31.2142 52.0528C31.7095 53.1818 32.459 54.1595 33.2496 54.9652C33.7006 55.4244 34.1816 55.853 34.6896 56.2482C36.4053 57.5853 38.615 58.1685 40.7462 57.7264C40.7779 57.7192 40.8053 57.7127 40.8334 57.7055Z" fill="#292B76"/>
</svg>
