<svg width="72" height="72" viewBox="0 0 72 72" fill="none" xmlns="http://www.w3.org/2000/svg">
<path d="M9.71289 56.9786C10.3285 57.1882 10.3422 57.3566 9.81369 57.8578C9.77193 57.492 9.74241 57.235 9.71289 56.9786Z" fill="white"/>
<path d="M37.6836 24.031C37.6836 24.031 45.7714 26.119 52.7316 24.7769" stroke="#80BB55" stroke-width="2" stroke-miterlimit="10"/>
<path d="M46.6454 23.1136L33.792 28.4935L34.1246 32.3923L46.6778 27.3472L46.6454 23.1136Z" fill="#80BB55"/>
<path d="M34.1286 24.031C34.1286 24.031 27.8034 25.8807 15.6455 25.4609" stroke="#80BB55" stroke-width="2" stroke-miterlimit="10"/>
<path d="M35.7303 9.21619C34.6287 9.21633 33.5519 9.54314 32.636 10.1553C31.7201 10.7674 31.0063 11.6374 30.5848 12.6553C30.1634 13.6731 30.0532 14.793 30.2683 15.8734C30.4834 16.9539 31.014 17.9463 31.793 18.7251C32.5721 19.504 33.5646 20.0344 34.6451 20.2491C35.7256 20.4639 36.8455 20.3535 37.8632 19.9318C38.8809 19.5101 39.7508 18.796 40.3627 17.88C40.9746 16.9639 41.3011 15.887 41.301 14.7854C41.3006 13.3082 40.7135 11.8917 39.6689 10.8473C38.6242 9.80289 37.2075 9.21619 35.7303 9.21619Z" fill="#80BB55"/>
<path d="M44.1469 62.0386C43.6617 61.0515 42.3815 60.7735 41.6989 60.6951C41.579 60.6808 41.4692 60.6211 41.3919 60.5283C41.3146 60.4355 41.2758 60.3166 41.2835 60.1961C41.4491 57.3456 41.9452 40.9534 40.8011 25.2199C40.7291 24.181 39.3409 22.2679 37.438 22.2679H34.5911C31.8781 22.2679 31.1603 24.8722 31.1229 25.6059C30.9738 28.5233 31.2208 44.6362 31.2431 50.3904C31.2489 51.9463 31.3468 60.1774 31.3734 60.3372C31.4051 60.5403 29.7894 60.7836 29.3099 61.1019C28.8304 61.4201 28.3962 62.0998 28.785 62.526C28.9974 62.7593 29.3531 62.7766 29.6692 62.7773C31.0674 62.7773 31.0905 62.7773 32.488 62.7823C32.9121 62.7823 33.4182 62.7384 33.6249 62.3676C33.7422 62.1581 33.6969 61.9025 33.6969 61.662C33.7509 58.0527 34.5796 51.7916 34.6501 50.4063C34.666 50.0974 35.2197 44.0343 35.6502 41.1708C35.667 41.0593 35.7232 40.9576 35.8087 40.8841C35.8942 40.8106 36.0033 40.7703 36.1161 40.7705C36.2161 40.7704 36.3136 40.8022 36.3944 40.8612C36.4752 40.9202 36.5351 41.0035 36.5653 41.0988C37.204 43.1379 37.9125 46.5269 38.2451 50.1874C38.7541 55.8034 38.7001 61.7722 38.8348 62.0551C38.9378 62.2708 39.0998 62.4529 39.3021 62.5803C39.5043 62.7077 39.7384 62.7753 39.9774 62.7752L43.8186 62.7809C44.2053 62.7809 44.3183 62.3827 44.1477 62.0371" fill="#80BB55"/>
<path d="M16.8542 16.2268C16.6814 17.362 16.8491 18.523 17.3361 19.563C17.8231 20.6029 18.6074 21.4751 19.59 22.0693C20.5727 22.6635 21.7094 22.9531 22.8565 22.9013C24.0037 22.8496 25.1097 22.4589 26.0348 21.7786C26.96 21.0984 27.6626 20.1591 28.054 19.0796C28.4454 18 28.5079 16.8286 28.2336 15.7136C27.9594 14.5985 27.3607 13.5898 26.5132 12.8149C25.6657 12.0401 24.6075 11.5339 23.4724 11.3603C22.7185 11.2454 21.9494 11.2802 21.2089 11.4626C20.4684 11.645 19.7711 11.9715 19.1568 12.4234C18.5425 12.8753 18.0232 13.4438 17.6286 14.0964C17.234 14.7489 16.9719 15.4729 16.8571 16.2268" fill="#292B76"/>
<path d="M6.90441 62.0376C6.73377 62.3832 6.84681 62.7813 7.23345 62.7813L11.0746 62.7756C11.3136 62.7755 11.5477 62.7079 11.7499 62.5805C11.9521 62.4531 12.1141 62.2711 12.2173 62.0556C12.4448 61.5775 17.7706 45.654 19.4022 40.771H20.151C20.5556 43.4609 21.4938 49.7263 21.5096 50.0503C21.5816 51.4356 22.1108 58.0531 22.1648 61.6625C22.1648 61.903 22.118 62.1586 22.2368 62.3681C22.4427 62.7389 22.9489 62.7835 23.3737 62.7828C24.7712 62.7828 24.7942 62.7785 26.1925 62.7777C26.5078 62.7777 26.8642 62.7598 27.0766 62.5265C27.4647 62.1002 27.0327 61.4206 26.5518 61.1023C26.0708 60.7841 24.9534 60.5393 24.9843 60.3355C25.0102 60.1757 25.3537 51.5868 25.4163 50.0323C25.4883 48.1027 25.5229 42.8827 25.5373 39.7529C25.543 38.2898 25.5452 37.284 25.5452 37.284V28.6109L24.2334 23.5471C22.7775 23.4247 22.0114 23.3909 20.9523 23.3909H18.7434C17.3991 23.3909 16.2536 25.2693 15.3738 25.8273L9.00033 30.4411C8.82066 30.5622 8.67107 30.7229 8.563 30.9107C8.45493 31.0985 8.39123 31.3085 8.37678 31.5248C8.36233 31.741 8.3975 31.9576 8.47962 32.1581C8.56174 32.3587 8.68862 32.5378 8.85057 32.6818L14.1066 37.3617C14.1941 37.4397 14.2908 37.5067 14.3946 37.5612C14.4212 37.5756 14.4478 37.5878 14.4752 37.6001L14.3946 37.9968L9.79809 60.6631C9.79809 60.6631 7.57977 60.6631 6.90441 62.0376ZM12.1086 31.7753L14.3953 30.2323V33.8107L12.1086 31.7753Z" fill="#292B76"/>
<path d="M16.1652 22.7409L14.0115 23.9843C13.4539 24.3062 13.2629 25.0191 13.5848 25.5766L14.0528 26.3872C14.3747 26.9448 15.0876 27.1358 15.6451 26.8139L17.7988 25.5705C18.3564 25.2486 18.5474 24.5357 18.2255 23.9781L17.7575 23.1675C17.4356 22.61 16.7227 22.419 16.1652 22.7409Z" fill="#80BB55"/>
<path d="M24.2314 23.5479C24.2314 23.5479 27.5492 25.8094 31.1139 25.8101L31.0758 29.3129C31.0758 29.3129 26.8458 29.4432 24.482 28.3927C22.1182 27.3422 24.2314 23.5479 24.2314 23.5479Z" fill="#292B76"/>
<path d="M49.235 9.79211C48.0863 9.79197 46.9634 10.1325 46.0082 10.7706C45.0531 11.4086 44.3086 12.3156 43.869 13.3769C43.4293 14.4381 43.3143 15.6058 43.5383 16.7324C43.7624 17.8591 44.3155 18.8939 45.1277 19.7062C45.94 20.5184 46.9749 21.0715 48.1015 21.2956C49.2281 21.5197 50.3958 21.4046 51.4571 20.9649C52.5183 20.5253 53.4253 19.7808 54.0634 18.8257C54.7015 17.8705 55.042 16.7476 55.0418 15.5989C55.0419 14.8363 54.8918 14.0812 54.6 13.3766C54.3082 12.6721 53.8805 12.0319 53.3413 11.4927C52.802 10.9534 52.1618 10.5257 51.4573 10.2339C50.7527 9.94215 49.9976 9.79202 49.235 9.79211Z" fill="#F24690"/>
<path d="M63.3141 62.0374C62.6388 60.6629 60.4204 60.6629 60.4204 60.6629L55.8225 37.9937L55.7419 36.0173C55.77 36.0051 55.7966 35.9928 55.8225 35.9784C55.9263 35.9243 56.0231 35.8575 56.1105 35.7797L61.3665 31.0997C61.5285 30.9556 61.6554 30.7765 61.7375 30.5759C61.8196 30.3753 61.8548 30.1586 61.8403 29.9424C61.8259 29.7261 61.7622 29.516 61.6541 29.3281C61.546 29.1402 61.3964 28.9795 61.2168 28.8583L54.844 24.2453C53.9642 23.6873 52.8187 22.9039 51.4737 22.9039H49.2676C48.8277 22.9039 48.1876 22.9219 47.49 22.9515C46.705 22.9846 45.9649 23.3268 45.4312 23.9034C44.8975 24.48 44.6134 25.2442 44.6409 26.0295L44.6748 27.031V35.7048C44.6748 35.7048 44.6748 38.2903 44.6827 39.7534C44.6964 42.8832 44.7295 48.1054 44.8036 50.0328C44.8634 51.5873 45.2068 60.1762 45.2356 60.336C45.268 60.5391 44.1506 60.7824 43.6704 61.1007C43.1901 61.4189 42.7567 62.0986 43.1455 62.5248C43.3579 62.7581 43.7143 62.7754 44.0296 62.7761C45.4279 62.7761 45.4509 62.7761 46.8484 62.7811C47.2732 62.7811 47.7787 62.7372 47.9853 62.3664C48.1034 62.1569 48.0573 61.9013 48.0573 61.6608C48.1113 58.0515 48.6412 51.4368 48.7125 50.0487C48.7284 49.7247 49.6665 43.4592 50.0712 40.7693H50.8192C52.4515 45.6523 57.7773 61.5773 58.0048 62.0539C58.1079 62.2696 58.2699 62.4516 58.4721 62.5791C58.6743 62.7065 58.9085 62.774 59.1475 62.7739L62.9887 62.7797C63.3753 62.7797 63.4884 62.3815 63.3177 62.0359L63.3141 62.0374ZM55.8261 32.2279V28.6553L58.1136 30.1983L55.8261 32.2279Z" fill="#F24690"/>
<path d="M55.6431 23.0359L53.3661 22.0359C52.7767 21.777 52.089 22.045 51.8301 22.6344L51.4537 23.4914C51.1949 24.0809 51.4628 24.7686 52.0523 25.0274L54.3293 26.0274C54.9187 26.2863 55.6064 26.0183 55.8653 25.4289L56.2416 24.5719C56.5005 23.9824 56.2325 23.2947 55.6431 23.0359Z" fill="#80BB55"/>
</svg>
