<svg width="25" height="30" viewBox="0 0 25 30" fill="none" xmlns="http://www.w3.org/2000/svg">
<path d="M16.5938 25.1916C18.9642 25.5903 23.2586 25.7856 23 23.3932C22.7414 21.0008 19.6107 20.8055 17.8867 21.0049H17.5635" stroke="#4FA96D" stroke-width="1.80379" stroke-linecap="round" stroke-linejoin="round"/>
<path d="M21.832 21.3036C22.694 20.8052 24.0947 20.4064 24.0947 18.3131C24.0947 16.494 22.4141 16.2198 18.5352 16.8179" stroke="#4FA96D" stroke-width="1.80379" stroke-linecap="round" stroke-linejoin="round"/>
<path d="M1.40292 24.5936C1.79333 25.7899 3.01913 26.8664 6.89804 27.5841C13.3629 28.7802 23.5 30.8936 21.5 25.3934M23.0593 16.2203C24.2445 14.2266 24.6755 10.5981 16.9177 12.0335C14.7517 12.5345 12.9846 12.7732 11.8584 12.8717C11.3707 12.9144 11.0558 12.4459 11.2697 12.0382C12.6463 9.41302 14.3251 5.06288 12.7155 3.36101C11.9166 2.51626 11.0882 2.10649 10.3473 1.94658C8.90979 1.63637 7.74956 2.73743 7.45426 4.07542C7.22335 5.1217 7.02875 6.47394 6.89716 7.8468C6.69652 9.94012 3.78015 12.3484 3.01841 13.2298C1.72616 14.725 0.500361 18.3136 1.4061 24.5936" stroke="#4FA96D" stroke-width="1.80379" stroke-linecap="round" stroke-linejoin="round"/>
</svg>
