<svg width="72" height="72" viewBox="0 0 72 72" fill="none" xmlns="http://www.w3.org/2000/svg">
<path d="M27.2002 22.2912V15.8852C27.2002 15.5781 27.3246 15.2836 27.5459 15.0664C27.7673 14.8493 28.0676 14.7273 28.3807 14.7273H45.2197C45.5328 14.7273 45.8331 14.8493 46.0544 15.0664C46.2758 15.2836 46.4002 15.5781 46.4002 15.8852V22.9091" stroke="#F49521" stroke-width="4" stroke-miterlimit="10"/>
<path d="M64.2437 21.2727H9.3571C7.72415 21.2727 6.40039 22.5246 6.40039 24.069V57.7492C6.40039 59.2935 7.72415 60.5454 9.3571 60.5454H64.2437C65.8766 60.5454 67.2004 59.2935 67.2004 57.7492V24.069C67.2004 22.5246 65.8766 21.2727 64.2437 21.2727Z" fill="#FA0F0C"/>
<path d="M46.4002 36.2101V43.9726C46.4002 44.1086 46.3514 44.239 46.2646 44.3351C46.1779 44.4312 46.0601 44.4852 45.9374 44.4852H41.2291C41.1063 44.4852 40.9886 44.5393 40.9018 44.6354C40.815 44.7315 40.7663 44.8619 40.7663 44.9979V50.2147C40.7663 50.3506 40.7175 50.481 40.6307 50.5772C40.5439 50.6733 40.4262 50.7273 40.3035 50.7273H33.2954C33.1727 50.7273 33.055 50.6733 32.9682 50.5772C32.8814 50.481 32.8326 50.3506 32.8326 50.2147V44.9979C32.8318 44.8632 32.7832 44.7343 32.6973 44.639C32.6114 44.5437 32.4951 44.4897 32.3736 44.4886H27.663C27.5403 44.4886 27.4225 44.4346 27.3357 44.3384C27.249 44.2423 27.2002 44.1119 27.2002 43.9759V36.2101C27.2002 36.0742 27.249 35.9438 27.3357 35.8476C27.4225 35.7515 27.5403 35.6975 27.663 35.6975H32.3736C32.4963 35.6975 32.614 35.6435 32.7008 35.5473C32.7876 35.4512 32.8364 35.3208 32.8364 35.1849V29.9664C32.8364 29.8991 32.8483 29.8325 32.8716 29.7703C32.8949 29.7082 32.929 29.6517 32.972 29.6042C33.0149 29.5567 33.066 29.519 33.1221 29.4933C33.1783 29.4676 33.2384 29.4545 33.2992 29.4546H40.3072C40.368 29.4545 40.4281 29.4676 40.4843 29.4933C40.5404 29.519 40.5915 29.5567 40.6344 29.6042C40.6774 29.6517 40.7115 29.7082 40.7348 29.7703C40.7581 29.8325 40.77 29.8991 40.77 29.9664V35.1832C40.77 35.3192 40.8188 35.4496 40.9056 35.5457C40.9924 35.6418 41.1101 35.6958 41.2328 35.6958H45.9426C46.0647 35.6974 46.1813 35.7523 46.267 35.8486C46.3527 35.9449 46.4006 36.0749 46.4002 36.2101Z" fill="white"/>
</svg>
