<svg width="72" height="72" viewBox="0 0 72 72" fill="none" xmlns="http://www.w3.org/2000/svg">
<path d="M45.3901 31.4823C45.1893 33.327 43.4519 34.8023 41.6029 34.9578C39.6222 35.1241 38.2096 33.2708 38.4047 31.4528C38.6027 29.6074 40.1752 28.2963 42.0241 28.1451C43.8616 27.9961 45.6119 29.4519 45.3901 31.4823Z" fill="#302B6F"/>
<path d="M57.0523 26.4533C56.8507 28.2979 55.114 29.7732 53.2651 29.9287C51.2843 30.095 49.8717 28.2418 50.0668 26.423C50.2648 24.5777 51.8366 23.2666 53.6863 23.1161C55.5237 22.967 57.274 24.4229 57.0523 26.4533Z" fill="#302B6F"/>
<path d="M44.0469 30.4155L38.0032 16.3863C37.9154 16.1797 37.9081 15.9476 37.9829 15.7358C38.0577 15.5241 38.209 15.348 38.4071 15.2423L49.372 9.45634C49.4821 9.39791 49.6032 9.36316 49.7276 9.35431C49.8519 9.34546 49.9768 9.3627 50.0941 9.40494C50.2114 9.44718 50.3185 9.51348 50.4087 9.59958C50.4988 9.68567 50.57 9.78967 50.6176 9.9049L56.8593 25.004L55.834 25.4281L49.6816 10.5486L39.1019 16.1279L45.0664 29.9735L44.0469 30.4155Z" fill="#302B6F"/>
<path d="M40.1834 20.0525L51.4068 13.1542L50.0474 9.99341L38.6592 15.8816L40.1834 20.0525Z" fill="#302B6F"/>
<path d="M50.7669 44.0135C49.5969 45.0215 47.7048 44.9264 46.4944 43.9703C45.1984 42.9464 45.3936 41.0183 46.5448 40.0261C47.7134 39.0181 49.4126 39.1167 50.62 40.0758C51.8275 41.0348 52.0557 42.9068 50.7669 44.0135Z" fill="#F24690"/>
<path d="M54.5844 31.7563L50.1094 42.3192L51.4333 42.8801L55.9083 32.3171L54.5844 31.7563Z" fill="#F24690"/>
<path d="M54.5856 31.7576C55.2429 31.7576 55.9212 31.8684 56.4957 32.1176C57.5181 32.5604 58.2612 33.5655 58.673 34.6001C59.0287 35.4944 59.177 36.452 59.2951 37.4081C59.2987 37.4383 59.2927 37.4688 59.2779 37.4954C59.2631 37.5219 59.2403 37.5431 59.2127 37.5559C59.1851 37.5687 59.1542 37.5724 59.1244 37.5666C59.0946 37.5607 59.0674 37.5456 59.0467 37.5233C58.2856 36.7004 57.4337 35.9663 56.5072 35.3353C55.8837 34.9105 55.1911 34.5217 54.4365 34.4993L54.5856 31.7576Z" fill="#F24690"/>
<path d="M64.0076 27.9616C63.8701 29.0761 62.8067 29.9538 61.6863 30.0323C60.4861 30.1165 59.6473 28.9832 59.7805 27.8845C59.9159 26.77 60.8785 25.9895 61.9988 25.9139C63.1191 25.8383 64.161 26.7347 64.0076 27.9616Z" fill="#F49521"/>
<path d="M61.0433 19.141L60.0557 19.488L62.8244 27.3678L63.812 27.0207L61.0433 19.141Z" fill="#F49521"/>
<path d="M60.0605 19.4922C60.4083 19.1666 60.8179 18.9141 61.2651 18.7499C62.0319 18.4871 62.9211 18.6642 63.6533 19.0192C64.2833 19.3259 64.8327 19.7687 65.3648 20.2259C65.3815 20.2404 65.3933 20.2598 65.3984 20.2813C65.4034 20.3029 65.4016 20.3255 65.393 20.346C65.3845 20.3664 65.3697 20.3836 65.3508 20.3952C65.3319 20.4067 65.3098 20.412 65.2877 20.4102C64.4747 20.3401 63.6564 20.3623 62.8484 20.4765C62.3041 20.5535 61.741 20.6838 61.3234 21.0417L60.0605 19.4922Z" fill="#F49521"/>
<path d="M25.2036 11.4961C25.2036 11.4961 12.839 11.5854 10.4054 23.8081C8.92585 31.2457 10.0851 38.0562 12.8664 42.1681C14.5879 38.6355 17.4132 35.7597 20.9147 33.9758C24.4163 32.1919 28.4035 31.597 32.2733 32.2811C33.5981 30.6971 34.7652 29.4299 36.1757 25.4979C37.9224 20.6307 35.2786 11.8604 25.2036 11.4961Z" fill="#302B6F"/>
<path d="M18.5905 27.7549C19.3947 29.4664 18.6675 31.6725 17.1419 32.7899C15.5075 33.9873 13.2942 33.1254 12.4979 31.4399C11.6907 29.7299 12.3611 27.7542 13.8896 26.6411C15.4182 25.528 17.7042 25.8714 18.5905 27.7549Z" fill="#59A9CB"/>
<path d="M14.0871 28.1619C14.0871 28.1619 12.4426 30.0843 14.4507 31.8202" stroke="white" stroke-width="2" stroke-miterlimit="10"/>
<path d="M31.1714 18.4113C30.9705 20.2559 29.2332 21.7312 27.3842 21.8867C25.4035 22.0531 23.9908 20.1998 24.186 18.3818C24.384 16.5364 25.9564 15.2253 27.8054 15.0741C29.6429 14.925 31.3925 16.3809 31.1714 18.4113Z" fill="#F24690"/>
<path d="M27.2716 16.5941C27.2716 16.5941 24.9784 17.1701 25.5731 19.5821" stroke="white" stroke-width="2" stroke-miterlimit="10"/>
<path d="M22.0517 20.2315C22.3613 21.9897 21.1525 23.82 19.4857 24.46C17.7001 25.1462 15.7964 23.8272 15.5883 22.0797C15.3529 20.1033 16.4141 18.5812 18.0449 18.0513C19.7326 17.5012 21.7119 18.2932 22.0517 20.2315Z" fill="#B3D498"/>
<path d="M17.2726 23.1119C16.9976 22.6115 16.8622 22.1615 16.8291 21.7633" stroke="white" stroke-width="2" stroke-miterlimit="10"/>
<path d="M18.3265 19.2557C18.3265 19.2557 17.3055 19.7403 16.9434 20.7807" stroke="white" stroke-width="2" stroke-miterlimit="10"/>
<path d="M29.0253 65.5274C37.7345 65.5274 44.7947 58.4672 44.7947 49.758C44.7947 41.0487 37.7345 33.9885 29.0253 33.9885C20.3161 33.9885 13.2559 41.0487 13.2559 49.758C13.2559 58.4672 20.3161 65.5274 29.0253 65.5274Z" stroke="#302B6F" stroke-width="2" stroke-miterlimit="10"/>
<path d="M33.6078 39.4926C32.2895 39.8526 29.0675 40.7123 27.2718 41.0874C27.0434 41.1346 26.8387 41.2602 26.6931 41.4424C26.5475 41.6247 26.4703 41.8521 26.4748 42.0853L26.6037 48.9318C26.6073 49.1298 26.6696 49.3222 26.7828 49.4846C26.896 49.647 27.055 49.7721 27.2394 49.844L33.921 52.4483C34.1248 52.5279 34.3491 52.5384 34.5594 52.4782C34.7698 52.418 34.9545 52.2904 35.0853 52.1149C36.0169 50.8636 38.1093 48.0016 38.8689 46.5709C38.9505 46.416 38.9897 46.2422 38.9825 46.0672C38.9753 45.8921 38.922 45.7222 38.8278 45.5744C38.1467 44.5009 36.3539 41.7584 34.6158 39.7914C34.4926 39.6523 34.3328 39.5506 34.1546 39.4978C33.9764 39.4449 33.787 39.4432 33.6078 39.4926Z" fill="#302B6F"/>
<path d="M24.0386 34.7994C24.0796 34.7864 24.1237 34.787 24.1644 34.801C24.2051 34.8151 24.2402 34.8419 24.2644 34.8774C24.2887 34.913 24.3008 34.9554 24.299 34.9984C24.2973 35.0415 24.2817 35.0827 24.2546 35.1162C23.4993 36.032 22.0377 37.9516 21.8131 39.3332C21.7648 39.6313 17.8912 41.7697 16.498 42.9613C16.4717 42.9841 16.4398 42.9996 16.4056 43.0064C16.3715 43.0131 16.3361 43.0108 16.3031 42.9998C16.27 42.9888 16.2404 42.9693 16.2172 42.9434C16.1939 42.9175 16.1778 42.8859 16.1704 42.8519C16.0415 42.2507 15.8767 40.9648 16.5628 40.095C18.4778 37.631 21.0788 35.7885 24.0386 34.7994Z" fill="#302B6F"/>
<path d="M26.3513 34.3374C27.5198 34.4994 31.0312 35.0452 32.9961 36.0186C33.3387 36.1864 33.7117 36.2829 34.0927 36.3023C35.051 36.3563 36.8632 36.4974 37.8986 36.8308C37.9118 36.8353 37.9262 36.8349 37.9391 36.8297C37.952 36.8245 37.9627 36.8149 37.9691 36.8025C37.9755 36.7902 37.9774 36.7759 37.9742 36.7623C37.971 36.7488 37.9631 36.7368 37.9519 36.7285C36.8395 35.8948 32.6908 33.2221 26.352 34.2208C26.3381 34.2229 26.3254 34.2299 26.3162 34.2405C26.307 34.2512 26.3018 34.2647 26.3018 34.2788C26.3017 34.2929 26.3066 34.3065 26.3157 34.3172C26.3248 34.328 26.3374 34.3351 26.3513 34.3374Z" fill="#302B6F"/>
<path d="M44.0258 45.2766C43.9006 45.6942 43.5802 46.6877 43.1309 47.5143C42.8741 47.9904 42.7935 48.5419 42.9034 49.0717C43.2252 50.6369 43.7558 53.9749 43.1194 56.6381C43.1155 56.6536 43.1175 56.67 43.1247 56.6842C43.132 56.6984 43.1442 56.7095 43.159 56.7154C43.1738 56.7214 43.1902 56.7218 43.2053 56.7166C43.2204 56.7114 43.2331 56.7009 43.241 56.6871C43.9862 55.4026 46.121 50.9797 44.1547 45.2751C44.1506 45.2611 44.142 45.2488 44.1303 45.2402C44.1186 45.2315 44.1043 45.2269 44.0897 45.2271C44.0751 45.2272 44.061 45.2321 44.0495 45.2411C44.0379 45.25 44.0296 45.2625 44.0258 45.2766Z" fill="#302B6F"/>
<path d="M16.0373 51.9412C16.9244 52.7512 18.5991 54.1228 20.6619 55.0624C20.765 55.1096 20.8541 55.1829 20.9205 55.2749C20.9869 55.3669 21.0283 55.4745 21.0406 55.5873C21.1558 56.6161 21.5763 59.5365 22.7974 61.4769C22.8556 61.5671 22.891 61.6701 22.9006 61.7771C22.9102 61.884 22.8937 61.9917 22.8525 62.0909C22.8113 62.19 22.7466 62.2777 22.664 62.3463C22.5814 62.4149 22.4834 62.4625 22.3784 62.4849C21.6749 62.6267 20.9597 62.7029 20.2421 62.7124C20.1053 62.7147 19.9712 62.6736 19.8591 62.595C19.0369 62.0248 15.5801 59.427 14.2129 55.1913C14.1801 55.0905 14.1722 54.9833 14.1898 54.8788C14.2496 54.5188 14.4397 53.5828 14.971 52.191C15.0099 52.0904 15.0728 52.0007 15.1543 51.9299C15.2357 51.8591 15.3331 51.8092 15.4382 51.7846C15.5433 51.76 15.6528 51.7614 15.7572 51.7886C15.8616 51.8159 15.9578 51.8683 16.0373 51.9412Z" fill="#302B6F"/>
<path d="M39.1552 61.7885C39.1516 61.782 38.2725 60.2938 35.8432 59.874C35.6068 59.8341 35.3641 59.8875 35.1664 60.0231C34.2837 60.6271 31.6909 62.4329 30.5584 63.5791C30.4984 63.6405 30.4531 63.7147 30.4259 63.7961C30.3986 63.8775 30.3902 63.964 30.4011 64.0491C30.4121 64.1342 30.4421 64.2158 30.4891 64.2876C30.536 64.3595 30.5986 64.4198 30.6721 64.464C31.2237 64.7988 32.0596 65.2301 32.5593 65.1293C35.332 64.5691 38.7354 62.6777 39.1501 61.7885H39.1552Z" fill="#302B6F"/>
<path d="M27.6039 48.9355C27.6039 48.9355 22.4638 51.7018 20.1807 56.2687" stroke="#302B6F" stroke-width="2" stroke-miterlimit="10"/>
<path d="M27.4236 41.7481C27.4236 41.7481 25.0476 39.4326 20.8428 39.0215" stroke="#302B6F" stroke-width="2" stroke-miterlimit="10"/>
<path d="M33.7373 35.5681C34.0327 37.1555 34.1706 38.7682 34.1491 40.3828" stroke="#302B6F" stroke-width="2" stroke-miterlimit="10"/>
<path d="M43.2633 48.4224C43.2633 48.4224 41.0702 46.446 38.2607 45.875" stroke="#302B6F" stroke-width="2" stroke-miterlimit="10"/>
<path d="M34.4229 51.6545C34.4229 51.6545 35.6224 55.31 35.5878 60.5876" stroke="#302B6F" stroke-width="2" stroke-miterlimit="10"/>
<path d="M16.4556 42.1736C16.4556 42.1736 13.7073 47.4195 15.5383 52.4041" stroke="#302B6F" stroke-width="2" stroke-miterlimit="10"/>
<path d="M22.1553 61.6836C22.1553 61.6836 25.8561 64.0596 31.0991 64.0596" stroke="#302B6F" stroke-width="2" stroke-miterlimit="10"/>
</svg>
