<svg id="Layer_1" data-name="Layer 1" xmlns="http://www.w3.org/2000/svg" viewBox="0 0 223.63 223.63"><defs><style>.cls-1{fill:#1d1464;opacity:0.54;}.cls-2{fill:none;stroke:#1d1464;stroke-miterlimit:10;stroke-width:17px;}.cls-3{fill:#22245e;}</style></defs><path class="cls-1" d="M583.32,270.6a103.32,103.32,0,0,1-206.64,0,101.29,101.29,0,0,1,.73-12.26,103.32,103.32,0,0,0,205.17,0A99.29,99.29,0,0,1,583.32,270.6Z" transform="translate(-368.18 -158.68)"/><circle class="cls-2" cx="111.82" cy="111.82" r="103.32"/><path class="cls-3" d="M468.27,247l3.77.13q5,.28,8,.28h6.61v.4L486,292.33q0,6.89.54,22.14-.14.94-6.21.95l-11.47-.14h-1.35q.53-6.61.54-17.69l-.41-31.32q0-12.67.68-19.17Zm18.22-11.34q-.81,1.22-5.67,1.21l-10.67-.27h-1.88l-.54-15.92v-2.71l18.35.41Z" transform="translate(-368.18 -158.68)"/></svg>