<svg width="129" height="49" viewBox="0 0 129 49" fill="none" xmlns="http://www.w3.org/2000/svg">
<path d="M47.5006 17.4232V26.6085H54.9237C61.2588 26.6085 61.2207 17.4232 54.9237 17.4232H47.5006ZM54.9237 12.7565C67.7434 12.7565 67.7815 31.0895 54.9237 31.0895H47.5006V38.7184H42.5527V12.7942C46.6764 12.7942 50.8 12.7565 54.9237 12.7565ZM71.3802 20.388V38.7184H66.8077V20.388H71.3802ZM66.3943 15.312C66.3943 11.7951 71.7909 11.7951 71.7909 15.312C71.7909 18.8289 66.3943 18.8316 66.3943 15.312ZM88.922 20.4284H93.9079L86.036 38.7991H81.0882L73.1782 20.423H78.1614L80.7128 26.4631L83.5634 34.1674L86.3733 26.5358L88.922 20.4284ZM104.067 20.0972C109.951 20.0972 113.737 24.4058 113.737 29.6138C113.737 34.8218 110.103 39.1196 104.103 39.1196C98.1023 39.1196 94.5091 34.8595 94.5091 29.6003C94.5091 24.3412 98.1812 20.0918 104.067 20.0918V20.0972ZM104.103 24.2065C100.806 24.2065 99.0815 26.8725 99.0815 29.6138C99.0815 32.3551 100.768 34.9834 104.103 34.9834C107.438 34.9834 109.127 32.3928 109.127 29.6138C109.127 26.8348 107.179 24.2011 104.103 24.2011V24.2065ZM117.635 15.7994L122.21 15.3174V20.5038H127.308V24.3923H122.172V32.2797C122.172 34.022 123.146 34.873 124.571 34.873C125.341 34.8507 126.096 34.6604 126.783 34.3155L128.056 38.169C126.856 38.6648 125.572 38.928 124.272 38.9446C120.26 39.0954 117.635 36.836 117.635 32.2797V24.3869H114.189V20.4984H117.635V15.7994Z" fill="white"/>
<path d="M0.0107422 19.4696L14.4489 28.0518L28.996 19.4696L21.4287 9.70801L14.4761 13.8092L7.57801 9.70801L0.0107422 19.4696Z" fill="white"/>
<path d="M14.5031 0.772949L8.57056 8.42606L14.4813 11.9402L20.4356 8.42606L14.5031 0.772949Z" fill="white"/>
<path d="M6.05762 24.9302L0 21.3164V39.8783L6.05762 43.4356V24.9302Z" fill="white"/>
<path d="M22.969 24.9334V43.2826L28.9967 39.6634V21.4058L22.969 24.9334Z" fill="white"/>
<path d="M21.3554 25.8755L14.4328 29.9256L7.67065 25.8916V44.3835L14.4763 48.3824L21.3554 44.2516V25.8755Z" fill="white"/>
</svg>
