<svg width="123" height="48" viewBox="0 0 123 48" fill="none" xmlns="http://www.w3.org/2000/svg">
<g clip-path="url(#clip0)">
<path d="M45.6255 16.7858V26.0465H52.7555C58.8405 26.0465 58.8039 16.7858 52.7555 16.7858H45.6255ZM52.7555 12.0809C65.0691 12.0809 65.1057 30.5641 52.7555 30.5641H45.6255V38.2555H40.873V12.1189C44.8339 12.1189 48.7947 12.0809 52.7555 12.0809ZM68.5623 19.775V38.2555H64.1704V19.775H68.5623ZM63.7732 14.6573C63.7732 11.1116 68.9568 11.1116 68.9568 14.6573C68.9568 18.203 63.7732 18.2057 63.7732 14.6573ZM85.4115 19.8157H90.2006L82.6394 38.337H77.887L70.2893 19.8103H75.0757L77.5264 25.8999L80.2645 33.6673L82.9634 25.9732L85.4115 19.8157ZM99.9589 19.4818C105.61 19.4818 109.247 23.8257 109.247 29.0763C109.247 34.327 105.756 38.66 99.9929 38.66C94.2293 38.66 90.7779 34.365 90.7779 29.0627C90.7779 23.7605 94.3051 19.4763 99.9589 19.4763V19.4818ZM99.9929 23.6247C96.8263 23.6247 95.1699 26.3125 95.1699 29.0763C95.1699 31.8401 96.7897 34.4899 99.9929 34.4899C103.196 34.4899 104.819 31.8781 104.819 29.0763C104.819 26.2745 102.948 23.6193 99.9929 23.6193V23.6247ZM112.991 15.1487L117.386 14.6627V19.8917H122.282V23.8121H117.349V31.7641C117.349 33.5207 118.284 34.3786 119.653 34.3786C120.393 34.3562 121.118 34.1643 121.777 33.8166L123 37.7017C121.848 38.2015 120.614 38.4669 119.366 38.4836C115.512 38.6356 112.991 36.3578 112.991 31.7641V23.8066H109.681V19.8863H112.991V15.1487Z" fill="#302B6F"/>
<path d="M13.9302 0L0.00976562 18.8498L13.8753 27.5023L27.8479 18.8498L13.9302 0Z" fill="#F39200"/>
<path d="M13.9307 0L7.27881 9.00814L13.9046 13.143L20.5826 9.00814L13.9307 0Z" fill="#2F2870"/>
<path d="M5.81845 24.3554L0 20.7119V39.4259L5.81845 43.0124V24.3554Z" fill="#5684B0"/>
<path d="M22.0615 24.3583V42.8579L27.8512 39.209V20.8018L22.0615 24.3583Z" fill="#5684B0"/>
<path d="M20.5121 25.3086L13.8602 29.3919L7.36768 25.3249V43.9683L13.9046 48L20.5121 43.8353V25.3086Z" fill="#2F2870"/>
</g>
<defs>
<clipPath id="clip0">
<rect width="123" height="48" fill="white"/>
</clipPath>
</defs>
</svg>
