<svg id="Layer_1" data-name="Layer 1" xmlns="http://www.w3.org/2000/svg" viewBox="0 0 1000 1000"><defs><style>.cls-1{fill:#f49521;}.cls-2{fill:#e87514;}</style></defs><path class="cls-1" d="M370.81,500.14h0a15.49,15.49,0,0,1-16,9.45q-2.22-.25-4.44-.57c-30.53-4.24-59.87-15.93-88-28.85-41.53-19.06-84.39-43.84-103.38-85.4-6-13.14-8.51-29.37-4.71-42.82a34.43,34.43,0,0,1,12.47-18.7c13.08-9.72,45.49-18.15,71.43-1,20.18,13.32,34.22,33,49.93,51.37,14.35,16.78,39.15,36.39,63.19,52.29A52.73,52.73,0,0,1,370.81,500.14Z"/><path class="cls-2" d="M350.33,509c-30.53-4.24-59.87-15.93-88-28.85-41.53-19.06-84.39-43.84-103.38-85.4-6-13.14-14.83-39.16,4.41-58.64-17.2,54.13,75.4,148.77,164.15,117.07C363.21,440.44,353.37,502,350.33,509Z"/></svg>