<svg id="Layer_1" data-name="Layer 1" xmlns="http://www.w3.org/2000/svg" viewBox="0 0 1000 1000"><defs><style>.cls-1{fill:#f49521;}.cls-2{fill:#e87514;}.cls-3{fill:#fab05e;}.cls-4{fill:#4c598a;}</style></defs><path class="cls-1" d="M344.58,492.54h0a15.47,15.47,0,0,1-16,9.45c-1.48-.17-3-.36-4.43-.57-30.53-4.24-59.87-15.93-88-28.85-41.53-19.06-84.39-43.84-103.38-85.4-6-13.14-8.51-29.37-4.71-42.82a34.43,34.43,0,0,1,12.47-18.7c13.08-9.72,45.49-18.15,71.43-1,20.18,13.32,34.22,33,49.93,51.37C276.16,392.78,301,412.39,325,428.29A52.73,52.73,0,0,1,344.58,492.54Z"/><path class="cls-2" d="M324.11,501.42c-30.53-4.24-59.87-15.93-88-28.85-41.53-19.06-84.39-43.84-103.38-85.4-6-13.14-14.84-39.16,4.4-58.64C119.9,382.66,212.5,477.3,301.26,445.6,337,432.84,327.15,494.44,324.11,501.42Z"/><path class="cls-1" d="M593.72,451.22A132.47,132.47,0,0,1,525,447.44c-1.84-.61-2.63,2.29-.8,2.89a135.56,135.56,0,0,0,54.88,6.13,137.93,137.93,0,0,0,15.4-2.35c1.89-.4,1.09-3.29-.8-2.89Z"/><path class="cls-1" d="M628.22,616.2a210.33,210.33,0,0,0-55,2.48c-23,3.9-41.66,9.93-60.45,10.33l-5.42.12c-5.57.12-11,.24-16.26.34-59.22,1.12-101.19-.21-146.34-27.11a227.61,227.61,0,0,1-20.27-13.66q-5.34-4-10.79-8.54c-1.54-1.28-3.1-2.59-4.66-3.94-10.16-8.77-19.69-18.56-26.15-30.32-9.36-17-11.67-37.09-11.47-56.53.13-13.05,1.44-26.54,7.8-37.94,11.83-21.22,25.39-38.7,47.9-47.84,31.47-12.79,67.47-6.1,97.16,5.26,13.87,5.31,38.23,18,52.21,23,22.49,8,48.72,13.84,74.9,14.39a165.52,165.52,0,0,0,37.94-3.34c1.62-.34,3.22-.71,4.82-1.11Z"/><path class="cls-2" d="M589.3,442.86l-8.4,6.95s-18.11,9.56-23.81,46.16a3.5,3.5,0,0,1-6.92,0c-2.27-14.51-3.47-33.43,1.19-49.75A165.52,165.52,0,0,0,589.3,442.86Z"/><path class="cls-3" d="M573.2,618.68c-23,3.9-41.66,9.93-60.45,10.33l-5.42.12c-5.57.12-11,.24-16.26.34-59.22,1.12-101.19-.21-146.34-27.11a227.61,227.61,0,0,1-20.27-13.66q-5.34-4-10.79-8.54a11,11,0,0,1,1.4-.64c3.72-1.41,7.82-1.3,11.79-1.18,31.11,1,62.61,2.39,92.35,11.56,16.62,5.12,32.66,12.66,49.91,14.93,18.21,2.39,36.84-1.23,55,1.56C540.7,608.94,556.91,616.77,573.2,618.68Z"/><path class="cls-1" d="M781.15,550.62a102,102,0,0,1-1.42,10.53c-15,79.8-100.8,70.51-122.56,69.79-88.26-3-88-62.29-100.43-83,0,0-5.09-21.11-3.4-38A74.12,74.12,0,0,1,556,498c8-27.78,7.37-38,31.7-62.31,7.59-7.57,17.7-13.61,29.53-18.64A196.69,196.69,0,0,1,637,409.82c20.37-6.37,44.46-2.31,64,6.24,17.26,7.5,30.79,25.15,42.4,40,7.65,9.74,14.81,19.87,22,30C772.84,496.64,783.71,520.66,781.15,550.62Z"/><path class="cls-4" d="M650.09,487.72A7.29,7.29,0,0,1,642.8,495c-4,0-11.1-4.91-11.1-8.94s7.07-5.64,11.1-5.64A7.29,7.29,0,0,1,650.09,487.72Z"/><path class="cls-4" d="M715.65,468.64c1.34,3.79-2.31,10.42-6.1,11.77a7.29,7.29,0,0,1-4.87-13.75C708.48,465.32,714.3,464.84,715.65,468.64Z"/><path class="cls-2" d="M779.73,561.15c-2.67.37-3.32-17.71-7-32.94-4.53-18.79-31.92-73.58-71.42-100-13-8.66-34.05-16-51.23-14.21-11.49,1.22-21.36,2.1-32.91,3A196.69,196.69,0,0,1,637,409.82c20.37-6.37,44.46-2.31,64,6.24,17.26,7.5,30.79,25.15,42.4,40,7.65,9.74,14.81,19.87,22,30C772.84,496.64,788.14,516.67,779.73,561.15Z"/><path class="cls-1" d="M606.21,427.69c-.23-11.06,0-21,4.32-35.59l10,16c8.64-16.35,20.55-32,37.41-39.55a85.12,85.12,0,0,0-4.35,38.73,47.43,47.43,0,0,1,29.54-11.67c-4.35,6.2-6.08,10-7.59,15.64-2.49,9.32-2,10.8-.64,16.48"/><path class="cls-4" d="M271.27,618.47c-14.21,15.3-28,20.53-70.34,21.75-5.41.16-9.84-3.94-8-9.05a53.48,53.48,0,0,1,3-7,7.06,7.06,0,0,0,.11-6.51c-1.72-3.39-5.14-6-7.79-5.94l-7,.13c-9.64,0-12.12-8-6.52-13.22l3.93-5.45a8.85,8.85,0,0,0,1.41-7.82c-.74-2.33-2.81-5.29-8.92-6.9-18.37-4.83-13.06-22.06,5.06-18.49,24.51,4.82,42,8.11,70.85-4.89C269,545.21,326.34,559.16,271.27,618.47Z"/><path class="cls-1" d="M339.31,580.57a29.72,29.72,0,0,1-5.83,4.65c-7.4,4.57-29.38,17-52.43,18.78-11.22.86-22.4-3.75-28.74-13.06-3.36-4.91-3.77-11.09-.68-18.53a31.8,31.8,0,0,1,22.85-18.65c11.48-2.46,28.95-7.9,40.45-19.44C332.59,516.58,363.06,555.92,339.31,580.57Z"/><path class="cls-2" d="M348,554.7s6.7,34.68-3.91,47.66a192.51,192.51,0,0,1-18.73-12.51S344.32,579.61,348,554.7Z"/></svg>