<svg id="Layer_1" data-name="Layer 1" xmlns="http://www.w3.org/2000/svg" viewBox="0 0 1000 1000"><defs><style>.cls-1{fill:#f49521;}.cls-2{fill:#e87514;}.cls-3{fill:#fab05e;}.cls-4{fill:#4c598a;}</style></defs><path class="cls-1" d="M390.81,492.33h0a15.49,15.49,0,0,1-16,9.46q-2.22-.26-4.44-.57c-30.53-4.24-59.87-15.93-88-28.85-41.53-19.06-84.39-43.84-103.38-85.4-6-13.14-8.51-29.37-4.71-42.82a34.43,34.43,0,0,1,12.47-18.7c13.08-9.72,45.49-18.15,71.43-1,20.18,13.32,34.22,33,49.93,51.37,14.35,16.78,39.15,36.39,63.19,52.29A52.74,52.74,0,0,1,390.81,492.33Z"/><path class="cls-2" d="M370.33,501.22c-30.53-4.24-59.87-15.93-88-28.85-41.53-19.06-84.39-43.84-103.38-85.4-6-13.14-14.83-39.16,4.4-58.64C166.13,382.45,258.73,477.1,347.48,445.4,383.21,432.64,373.37,494.24,370.33,501.22Z"/><path class="cls-1" d="M640,451a132.26,132.26,0,0,1-68.69-3.79c-1.84-.6-2.63,2.3-.8,2.9a135.8,135.8,0,0,0,54.89,6.13,137.76,137.76,0,0,0,15.39-2.35c1.89-.4,1.09-3.29-.79-2.89Z"/><path class="cls-1" d="M674.44,616a210.33,210.33,0,0,0-55,2.48c-23,3.9-41.66,9.93-60.45,10.33l-5.42.12c-5.57.12-11,.24-16.26.34-59.22,1.12-101.19-.21-146.34-27.11a227.61,227.61,0,0,1-20.27-13.66q-5.34-4-10.79-8.54c-1.54-1.28-3.1-2.59-4.66-3.94-10.16-8.77-19.69-18.56-26.15-30.32-9.36-17-11.67-37.09-11.47-56.53.13-13.05,1.44-26.54,7.8-37.94,11.83-21.22,25.39-38.7,47.9-47.84,31.47-12.79,67.47-6.1,97.16,5.26,13.87,5.31,38.23,18,52.21,23,22.49,8,48.72,13.84,74.9,14.39a165.52,165.52,0,0,0,37.94-3.34c1.62-.34,3.22-.71,4.82-1.11Z"/><path class="cls-2" d="M635.52,442.66l-8.4,6.95s-18.11,9.55-23.8,46.16a3.5,3.5,0,0,1-6.92,0c-2.27-14.52-3.48-33.43,1.18-49.75A165.52,165.52,0,0,0,635.52,442.66Z"/><path class="cls-3" d="M619.42,618.48c-23,3.9-41.66,9.93-60.45,10.33l-5.42.12c-5.57.12-11,.24-16.26.34-59.22,1.12-101.19-.21-146.34-27.11a227.61,227.61,0,0,1-20.27-13.66q-5.34-4-10.79-8.54a11,11,0,0,1,1.4-.64c3.72-1.41,7.82-1.3,11.79-1.18,31.11,1,62.61,2.39,92.35,11.56,16.62,5.12,32.66,12.66,49.91,14.93,18.21,2.39,36.84-1.23,55,1.56C586.92,608.74,603.13,616.57,619.42,618.48Z"/><path class="cls-1" d="M827.37,550.42A101.93,101.93,0,0,1,826,561c-15,79.79-100.8,70.51-122.57,69.79-88.25-3-88-62.29-100.43-83,0,0-5.09-21.11-3.39-38a71.81,71.81,0,0,1,2.61-12c8-27.79,7.37-38,31.7-62.31,7.59-7.57,17.7-13.61,29.53-18.64a198,198,0,0,1,19.76-7.22c20.37-6.37,44.47-2.3,64,6.24,17.27,7.51,30.79,25.16,42.4,40,7.66,9.74,14.81,19.87,22,30C819.07,496.43,829.94,520.46,827.37,550.42Z"/><path class="cls-4" d="M696.32,487.52a7.29,7.29,0,0,1-7.3,7.29c-4,0-11.1-4.91-11.1-8.94s7.08-5.64,11.1-5.64A7.29,7.29,0,0,1,696.32,487.52Z"/><path class="cls-4" d="M761.87,468.43c1.35,3.8-2.3,10.43-6.1,11.78a7.29,7.29,0,0,1-4.87-13.75C754.7,465.11,760.53,464.64,761.87,468.43Z"/><path class="cls-2" d="M826,561c-2.68.37-3.32-17.71-7-32.94-4.53-18.79-31.93-73.58-71.43-100-13-8.66-34-16-51.22-14.22-11.5,1.22-21.37,2.11-32.91,3a198,198,0,0,1,19.76-7.22c20.37-6.37,44.47-2.3,64,6.24,17.27,7.51,30.79,25.16,42.4,40,7.66,9.74,14.81,19.87,22,30C819.07,496.43,834.36,516.47,826,561Z"/><path class="cls-1" d="M652.43,427.49c-.23-11.06,0-21,4.33-35.59l10,16c8.64-16.35,20.56-32,37.41-39.56A85.15,85.15,0,0,0,699.79,407a47.57,47.57,0,0,1,29.54-11.67c-4.35,6.21-6.07,10-7.58,15.65-2.49,9.32-2,10.8-.65,16.48"/></svg>