<svg width="388" height="224" viewBox="0 0 388 224" fill="none" xmlns="http://www.w3.org/2000/svg">
<path d="M234.25 145.61C240.433 151.278 245.5 158.587 249.452 166.033C250.443 167.907 251.371 169.87 251.59 171.982C251.809 174.093 250.677 176.851 248.545 176.787C247.638 176.761 246.824 176.216 245.938 176.078C243.853 175.755 242.138 177.571 240.907 179.285C239.677 181 238.254 182.958 236.168 183.112C234.203 183.249 232.519 181.688 230.632 181.185C228.286 180.566 225.814 181.614 223.786 182.974C221.758 184.334 219.934 186.044 217.692 186.991C215.45 187.938 212.562 187.933 210.914 186.128C208.996 184.011 209.58 180.741 210.164 177.946C212.249 168.065 213.427 163.091 210.951 153.31C210.951 153.31 220.028 148.584 223.103 147.489C231.111 144.625 234.25 145.61 234.25 145.61Z" fill="#4C598A"/>
<path d="M114.272 94.0736C113.602 95.7119 112.427 97.0854 110.923 97.9882C109.419 98.8909 107.667 99.2741 105.93 99.0802C105.159 98.9903 104.366 98.8897 103.621 98.7786C87.7042 96.5346 72.408 90.3478 57.7426 83.51C36.0913 73.4226 13.7466 60.308 3.84632 38.3127C0.718271 31.3585 -0.5903 22.7689 1.3908 15.6506C2.40623 11.7063 4.69531 8.22158 7.89193 5.7538C14.7111 0.609578 31.6078 -3.85193 45.1314 5.22456C55.6521 12.2741 62.9717 22.6895 71.162 32.4117C78.638 41.2924 91.5725 51.6708 104.106 60.0857C109.425 63.6704 113.349 69.0233 115.205 75.2253C117.06 81.4273 116.73 88.0915 114.272 94.0736Z" fill="#F49521"/>
<path d="M103.599 98.7798C87.6823 96.5358 72.3861 90.349 57.7208 83.5112C36.0695 73.4238 13.7247 60.3092 3.82445 38.314C0.696398 31.3598 -3.91226 17.5889 6.11836 7.2793C-2.84872 35.9218 45.4275 86.0092 91.7019 69.2375C110.314 62.4844 105.194 95.0857 103.599 98.7798Z" fill="#E87514"/>
<path d="M244.167 72.2034C234.923 74.1824 225.376 74.2148 216.119 72.2986C213.494 71.7437 210.902 71.0369 208.356 70.1817C207.402 69.8641 206.99 71.3989 207.944 71.7165C217.168 74.7875 226.916 75.899 236.582 74.9819C239.279 74.7208 241.959 74.3055 244.61 73.7381C245.596 73.5265 245.179 71.997 244.193 72.2034H244.167Z" fill="#F49521"/>
<path d="M262.143 159.52C252.57 158.681 242.929 159.122 233.469 160.833C221.479 162.897 211.75 166.088 201.954 166.3L199.129 166.364C196.225 166.427 193.394 166.491 190.652 166.543C159.778 167.136 137.897 166.432 114.358 152.196C110.711 149.98 107.183 147.567 103.791 144.966C101.935 143.555 100.06 142.048 98.1655 140.447C97.3626 139.769 96.5493 139.076 95.736 138.361C90.4392 133.72 85.4708 128.539 82.1029 122.315C77.2127 113.286 75.998 102.701 76.1127 92.3968C76.1805 85.5166 76.8634 78.3507 80.1792 72.3173C86.3466 61.0868 93.4161 51.8357 105.151 46.9984C121.558 40.2294 140.326 43.7701 155.805 49.7823C163.036 52.5925 175.736 59.3086 183.024 61.9548C194.749 66.1887 208.424 69.2795 222.073 69.5706C228.712 69.7455 235.35 69.1417 241.853 67.7712C242.697 67.5912 243.531 67.3954 244.365 67.1837L262.143 159.52Z" fill="#F49521"/>
<path d="M241.857 67.7695L237.478 71.4742C237.478 71.4742 228.036 76.5285 225.064 95.904C224.999 96.3418 224.781 96.7412 224.45 97.0298C224.119 97.3184 223.697 97.4771 223.261 97.4771C222.824 97.4771 222.402 97.3184 222.072 97.0298C221.741 96.7412 221.523 96.3418 221.457 95.904C220.273 88.2194 219.642 78.2115 222.077 69.5742C228.717 69.7474 235.354 69.1418 241.857 67.7695Z" fill="#E87514"/>
<path d="M233.439 160.833C221.448 162.897 211.719 166.089 201.923 166.3L199.098 166.364C196.194 166.428 193.363 166.491 190.621 166.544C159.747 167.137 137.866 166.433 114.328 152.196C110.68 149.98 107.152 147.567 103.76 144.967C101.904 143.555 100.029 142.049 98.1348 140.447C98.37 140.317 98.6139 140.204 98.8646 140.108C100.804 139.362 102.942 139.42 105.011 139.484C121.23 140.013 137.652 140.749 153.157 145.602C161.838 148.312 170.2 152.302 179.219 153.509C188.713 154.774 198.425 152.858 207.893 154.334C216.511 155.679 224.962 159.823 233.439 160.833Z" fill="#FAB05E"/>
<path d="M341.874 124.822C341.723 126.692 341.476 128.552 341.134 130.395C333.314 172.623 288.583 167.712 277.238 167.331C231.225 165.743 231.36 134.364 224.875 123.404C224.875 123.404 222.226 112.232 223.107 103.293C223.386 101.141 223.842 99.0168 224.468 96.9419C228.639 82.2343 228.31 76.8307 240.994 63.9649C244.951 59.9585 250.222 56.7566 256.39 54.0998C259.752 52.6555 263.187 51.3924 266.681 50.3157C277.306 46.9445 289.865 49.0985 300.047 53.6182C309.045 57.5875 316.099 66.9339 322.152 74.7878C326.14 79.9426 329.868 85.3039 333.621 90.6651C337.531 96.2486 343.198 108.966 341.874 124.822Z" fill="#F49521"/>
<path d="M273.541 91.5271C273.541 92.5504 273.14 93.5317 272.427 94.2553C271.715 94.9788 270.748 95.3853 269.74 95.3853C267.655 95.3853 263.953 92.7867 263.953 90.6539C263.953 88.521 267.639 87.6689 269.74 87.6689C270.748 87.6689 271.715 88.0754 272.427 88.799C273.14 89.5225 273.541 90.5039 273.541 91.5271Z" fill="#4C598A"/>
<path d="M307.715 81.4262C308.414 83.4373 306.511 86.9462 304.535 87.6607C304.064 87.8299 303.565 87.9034 303.067 87.8769C302.568 87.8504 302.079 87.7244 301.629 87.5062C301.178 87.288 300.774 86.9818 300.44 86.6051C300.106 86.2285 299.848 85.7886 299.681 85.3108C299.514 84.833 299.442 84.3265 299.468 83.8203C299.494 83.3141 299.618 82.8181 299.833 82.3605C300.048 81.903 300.35 81.4929 300.721 81.1537C301.092 80.8145 301.525 80.5528 301.996 80.3836C303.972 79.6691 307.011 79.4204 307.715 81.4262Z" fill="#4C598A"/>
<path d="M341.144 130.395C339.752 130.591 339.413 121.022 337.494 112.962C335.133 103.018 320.853 74.0204 300.255 60.0379C293.478 55.4494 282.529 51.57 273.552 52.5121C267.556 53.1577 262.416 53.6288 256.395 54.0998C259.762 52.655 263.203 51.3918 266.701 50.3157C277.326 46.9445 289.886 49.0985 300.067 53.6182C309.066 57.5875 316.119 66.9339 322.172 74.7878C326.161 79.9426 329.888 85.3038 333.642 90.665C337.552 96.2485 345.544 106.849 341.144 130.395Z" fill="#E87514"/>
<path d="M250.654 59.7627C250.535 53.9092 250.654 48.6486 252.912 40.9269L258.125 49.3948C262.63 40.7417 268.839 32.4591 277.623 28.458C275.321 35.0216 274.546 42.0373 275.361 48.9555C279.645 45.165 285.082 42.9844 290.761 42.7793C288.493 46.0659 287.592 48.0717 286.804 51.0619C285.506 55.9945 285.762 56.7724 286.471 59.7838" fill="#F49521"/>
<path d="M76.0483 160.721C68.64 168.818 61.4507 171.581 39.3771 172.232C36.5566 172.311 34.2471 170.147 35.2064 167.469C35.6392 166.197 36.1619 164.959 36.7704 163.764C37.0516 163.237 37.2037 162.648 37.2137 162.049C37.2236 161.449 37.0913 160.856 36.8277 160.319C35.931 158.53 34.148 157.143 32.7665 157.18L29.1171 157.249C24.0913 157.249 22.7984 153.015 25.7127 150.253L27.7616 147.363C28.195 146.781 28.4877 146.104 28.6163 145.386C28.7449 144.668 28.7057 143.929 28.5019 143.23C28.1109 141.997 27.0369 140.425 23.8515 139.578C14.2745 137.016 17.0428 127.903 26.4895 129.787C39.2624 132.343 48.3859 134.084 63.4266 127.204C74.8701 121.949 104.759 129.332 76.0483 160.721Z" fill="#4C598A"/>
<path d="M111.517 140.669C110.609 141.614 109.588 142.441 108.478 143.13C104.62 145.549 93.1557 152.127 81.144 153.069C75.2945 153.524 69.4607 151.079 66.1554 146.157C64.4089 143.553 64.1952 140.283 65.8061 136.35C66.8574 133.85 68.4905 131.645 70.5653 129.926C72.6402 128.207 75.0948 127.025 77.7188 126.48C83.7038 125.178 92.8116 122.299 98.8019 116.192C108.014 106.803 123.899 127.618 111.517 140.669Z" fill="#F49521"/>
<path d="M116.075 126.98C116.075 126.98 119.568 145.335 114.036 152.204C110.657 150.191 107.396 147.978 104.271 145.578C104.271 145.578 114.146 140.164 116.075 126.98Z" fill="#E87514"/>
<path d="M178.699 176.241C167.574 180.946 154.79 178.623 143.024 181.311C141.809 181.586 140.537 181.957 139.687 182.899C137.982 184.735 138.769 187.831 140.349 189.779C142.408 192.33 145.448 193.801 148.169 195.601C150.891 197.4 153.518 199.941 153.878 203.222C154.17 205.868 153.393 209.504 155.843 210.462C157.658 211.166 159.441 209.488 161.291 208.874C164.164 207.937 167.308 209.779 169.08 212.267C170.853 214.754 171.635 217.797 172.797 220.629C173.235 221.687 173.783 222.793 174.758 223.375C176.64 224.508 179.179 223.047 180.096 221.031C181.014 219.014 180.8 216.691 180.717 214.474C180.54 209.813 180.998 205.151 182.077 200.618C183.12 196.278 182.885 191.7 184.382 187.498C186.79 180.761 184.955 176.23 180.56 176.23L178.699 176.241Z" fill="#4C598A"/>
<path d="M161.16 179.525C161.16 179.525 172.432 178.398 174.194 171.984C175.956 165.569 188.791 166.813 189.991 171.984C191.19 177.154 187.723 190.258 182.363 199.293C177.004 208.327 159.763 188.613 161.16 179.525Z" fill="#4C598A"/>
<path d="M195.724 163.848C194.572 173.316 191.032 180.985 187.581 187.616C184.974 183.912 177.096 179.387 172.754 178.228C169.964 177.487 169.553 176.64 170.1 175.539C170.965 173.782 172.217 172.184 172.347 169.866C172.628 165.102 171.137 163.515 170.225 161.345C168.984 158.423 168.02 150.575 169.12 147.585C169.975 145.266 178.952 141.17 180.871 140.514C186.892 138.466 196.323 135.47 196.323 158.767L195.724 163.848Z" fill="#F49521"/>
<path d="M203.146 166.365C200.242 166.429 198.089 166.482 195.326 166.535C196.775 156.881 194.539 147.704 193.157 143.28C193.076 143.12 193.06 142.934 193.112 142.762C193.163 142.59 193.279 142.445 193.434 142.357C193.589 142.27 193.771 142.248 193.942 142.294C194.113 142.341 194.26 142.453 194.351 142.608C200.21 149.068 203.364 157.587 203.146 166.365Z" fill="#E87514"/>
<path d="M326.77 96.2388C336.962 105.389 346.915 110.375 360.49 111.375C368.691 111.978 378.159 111.423 383.675 117.615C388.951 123.532 387.684 133.291 382.966 139.674C378.247 146.056 370.975 149.84 363.895 153.354C344.777 162.881 286.559 173.042 276.726 145.024C274.912 139.848 274.949 134.259 275.016 128.766C275.116 121.182 270.366 118.8 269.897 115.186C269.235 110.131 273.75 105.728 278.541 104.193C288.269 101.081 295.813 101.404 305.494 98.1335C311.87 95.9742 318.872 90.4754 324.372 94.3917L326.77 96.2388Z" fill="#4C598A"/>
<path opacity="0.4" d="M279.226 117.489C279.226 117.489 281.134 119.378 281.905 130.159C282.677 140.939 294.225 155.562 314.229 153.445C334.232 151.328 331.167 144.507 322.184 145.057C313.202 145.607 303.192 146.645 294.522 140.823C287.635 136.187 288.944 123.744 284.773 119.05C280.602 114.356 278.12 114.816 279.226 117.489Z" fill="white"/>
<path d="M346.882 139.622C346.538 141.951 343.754 143.184 341.481 142.835C340.935 142.752 340.411 142.561 339.938 142.272C339.466 141.984 339.054 141.604 338.726 141.153C338.398 140.703 338.161 140.192 338.028 139.648C337.895 139.105 337.869 138.54 337.951 137.987C338.295 135.658 340.527 133.425 342.82 133.753C345.114 134.081 347.226 137.294 346.882 139.622Z" fill="white"/>
<path d="M362.027 134.454C361.72 136.508 359.754 138.44 357.731 138.159C357.184 138.121 356.651 137.969 356.165 137.711C355.679 137.454 355.251 137.097 354.907 136.663C354.564 136.229 354.313 135.727 354.17 135.19C354.027 134.653 353.996 134.091 354.077 133.541C354.159 132.99 354.352 132.463 354.645 131.992C354.937 131.522 355.323 131.117 355.777 130.806C356.231 130.494 356.744 130.28 357.283 130.18C357.822 130.079 358.376 130.093 358.91 130.22C359.873 130.37 360.739 130.897 361.323 131.689C361.906 132.481 362.159 133.475 362.027 134.454Z" fill="white"/>
</svg>
