<svg id="Layer_1" data-name="Layer 1" xmlns="http://www.w3.org/2000/svg" viewBox="0 0 1000 1000"><defs><style>.cls-1{fill:#4c598a;}.cls-2{fill:#f49521;}.cls-3{fill:#e87514;}.cls-4{fill:#fab05e;}</style></defs><path class="cls-1" d="M576.3,582.89c11.87,10.71,21.59,24.52,29.16,38.59,1.91,3.53,3.69,7.24,4.11,11.23s-1.76,9.2-5.84,9.09c-1.74,0-3.31-1.08-5-1.35-4-.61-7.29,2.83-9.64,6.07s-5.1,6.94-9.09,7.22c-3.77.27-7-2.68-10.62-3.63-4.51-1.17-9.25.81-13.13,3.38s-7.4,5.79-11.7,7.59-9.84,1.78-13-1.63c-3.68-4-2.57-10.19-1.45-15.47,4-18.67,6.26-28.06,1.52-46.55,0,0,17.41-8.93,23.3-11C570.28,581,576.3,582.89,576.3,582.89Z"/><path class="cls-2" d="M346.16,485.51h0a15.47,15.47,0,0,1-16,9.45c-1.48-.17-3-.36-4.44-.56-30.53-4.24-59.87-15.93-88-28.85-41.53-19.06-84.39-43.84-103.38-85.4-6-13.14-8.51-29.37-4.71-42.82A34.43,34.43,0,0,1,142,318.63c13.08-9.72,45.49-18.15,71.43-1,20.18,13.32,34.22,33,49.93,51.37,14.35,16.77,39.15,36.39,63.19,52.28A52.75,52.75,0,0,1,346.16,485.51Z"/><path class="cls-3" d="M325.68,494.4c-30.53-4.24-59.87-15.93-88-28.85-41.53-19.06-84.39-43.84-103.38-85.4-6-13.14-14.83-39.16,4.4-58.65-17.2,54.13,75.41,148.77,164.16,117.07C338.56,425.81,328.72,487.42,325.68,494.4Z"/><path class="cls-2" d="M595.29,444.19a132.65,132.65,0,0,1-53.8.18,134.2,134.2,0,0,1-14.88-4c-1.84-.6-2.63,2.29-.8,2.89a135.53,135.53,0,0,0,70.28,3.78c1.89-.4,1.09-3.29-.8-2.89Z"/><path class="cls-2" d="M629.79,609.18a210.33,210.33,0,0,0-55,2.48c-23,3.9-41.66,9.93-60.45,10.33l-5.42.12c-5.57.12-11,.24-16.26.34-59.22,1.12-101.19-.21-146.34-27.11A227.61,227.61,0,0,1,326,581.68q-5.34-4-10.79-8.54c-1.54-1.28-3.1-2.59-4.66-3.94-10.16-8.77-19.69-18.56-26.15-30.32-9.36-17-11.67-37.09-11.47-56.53.13-13.05,1.44-26.54,7.8-37.94,11.83-21.22,25.39-38.7,47.9-47.84,31.47-12.79,67.47-6.1,97.16,5.26,13.87,5.31,38.23,18,52.21,23,22.49,8,48.72,13.84,74.9,14.39a165.52,165.52,0,0,0,37.94-3.34c1.62-.34,3.22-.71,4.82-1.11Z"/><path class="cls-3" d="M590.87,435.84l-8.4,7s-18.11,9.55-23.8,46.16a3.51,3.51,0,0,1-6.93,0c-2.26-14.51-3.47-33.42,1.19-49.74A165.52,165.52,0,0,0,590.87,435.84Z"/><path class="cls-4" d="M574.77,611.66c-23,3.9-41.66,9.93-60.45,10.33l-5.42.12c-5.57.12-11,.24-16.26.34-59.22,1.12-101.19-.21-146.34-27.11A227.61,227.61,0,0,1,326,581.68q-5.34-4-10.79-8.54a11,11,0,0,1,1.4-.64c3.72-1.41,7.82-1.3,11.79-1.18,31.11,1,62.61,2.39,92.35,11.56,16.62,5.12,32.66,12.66,49.91,14.93,18.21,2.39,36.84-1.23,55,1.56C542.27,601.92,558.48,609.75,574.77,611.66Z"/><path class="cls-2" d="M782.72,543.6a101.75,101.75,0,0,1-1.41,10.52c-15,79.8-100.81,70.51-122.57,69.8-88.26-3-88-62.3-100.43-83,0,0-5.09-21.11-3.39-38a71.81,71.81,0,0,1,2.61-12c8-27.79,7.37-38,31.7-62.32,7.59-7.57,17.7-13.61,29.52-18.63a194.26,194.26,0,0,1,19.77-7.22c20.37-6.37,44.46-2.31,64,6.24,17.27,7.5,30.79,25.16,42.4,40,7.66,9.74,14.81,19.88,22,30C774.41,489.61,785.29,513.64,782.72,543.6Z"/><path class="cls-1" d="M651.66,480.69a7.29,7.29,0,0,1-7.29,7.3c-4,0-11.1-4.92-11.1-8.94s7.07-5.65,11.1-5.65A7.29,7.29,0,0,1,651.66,480.69Z"/><path class="cls-1" d="M717.22,461.61c1.35,3.8-2.3,10.43-6.1,11.77a7.29,7.29,0,0,1-4.87-13.75C710.05,458.29,715.88,457.81,717.22,461.61Z"/><path class="cls-3" d="M781.31,554.12c-2.68.37-3.32-17.7-7-32.93-4.53-18.8-31.93-73.59-71.43-100-13-8.66-34-16-51.23-14.21-11.49,1.22-21.36,2.1-32.91,3a194.26,194.26,0,0,1,19.77-7.22c20.37-6.37,44.46-2.31,64,6.24,17.27,7.5,30.79,25.16,42.4,40,7.66,9.74,14.81,19.88,22,30C774.41,489.61,789.71,509.64,781.31,554.12Z"/><path class="cls-2" d="M607.78,420.67c-.23-11.06,0-21,4.33-35.59l10,15.95c8.64-16.34,20.55-31.95,37.41-39.55a85.13,85.13,0,0,0-4.35,38.73,47.57,47.57,0,0,1,29.54-11.67c-4.35,6.2-6.07,10-7.58,15.65-2.49,9.31-2,10.79-.65,16.48"/><path class="cls-1" d="M272.84,611.44c-14.21,15.3-28,20.53-70.34,21.75-5.41.16-9.84-3.93-8-9a51,51,0,0,1,3-7,7.06,7.06,0,0,0,.1-6.51c-1.72-3.38-5.14-6-7.78-5.94l-7,.13c-9.64,0-12.12-8-6.52-13.22l3.93-5.45a8.82,8.82,0,0,0,1.41-7.82c-.74-2.33-2.81-5.29-8.92-6.9-18.37-4.83-13.06-22.06,5.06-18.49,24.51,4.82,42,8.11,70.85-4.89C270.58,538.19,327.91,552.14,272.84,611.44Z"/><path class="cls-2" d="M340.88,573.54a29.72,29.72,0,0,1-5.83,4.65c-7.39,4.57-29.38,17-52.43,18.78-11.22.86-22.4-3.75-28.74-13.05-3.35-4.92-3.77-11.1-.68-18.54a31.8,31.8,0,0,1,22.85-18.65c11.49-2.45,28.95-7.89,40.45-19.44C334.17,509.56,364.63,548.89,340.88,573.54Z"/><path class="cls-3" d="M349.59,547.68s6.7,34.68-3.91,47.66A192.68,192.68,0,0,1,327,582.82,49.3,49.3,0,0,0,349.59,547.68Z"/><path class="cls-1" d="M469.73,640.75c-21.35,8.89-45.87,4.51-68.43,9.58-2.33.53-4.77,1.23-6.41,3-3.26,3.48-1.75,9.33,1.27,13,3.95,4.82,9.79,7.61,15,11s10.26,8.21,10.95,14.41c.56,5-.94,11.87,3.77,13.67,3.47,1.33,6.9-1.83,10.44-3,5.52-1.78,11.55,1.7,14.94,6.4s4.91,10.45,7.14,15.8c.83,2,1.88,4.09,3.75,5.2,3.61,2.13,8.49-.62,10.24-4.43s1.35-8.21,1.19-12.4a95.75,95.75,0,0,1,2.64-26.18c2-8.2,1.55-16.86,4.43-24.79,4.61-12.74,1.1-21.29-7.34-21.3Z"/><path class="cls-1" d="M436.1,647s21.62-2.14,25-14.26,27.94-9.76,30.3,0-4.36,34.54-14.64,51.61S433.42,664.14,436.1,647Z"/><path class="cls-2" d="M502.39,617.35c-2.21,17.89-9,32.38-15.62,44.9-5-7-20.1-15.54-28.44-17.73-5.34-1.41-6.13-3-5.08-5.09,1.66-3.32,4.05-6.34,4.31-10.72.53-9-2.32-12.05-4.08-16.1-2.38-5.51-4.22-20.34-2.11-26,1.64-4.38,18.85-12.13,22.53-13.36,11.55-3.88,29.64-9.54,29.64,34.49Z"/><path class="cls-3" d="M516.62,622.11l-15,.31c2.78-18.24-1.51-35.58-4.16-43.93a1.31,1.31,0,0,1,2.22-1.27A63.92,63.92,0,0,1,516.62,622.11Z"/></svg>