<svg width="30" height="30" viewBox="0 0 30 30" fill="none" xmlns="http://www.w3.org/2000/svg">
<path opacity="0.5" d="M14.9998 25.9091C6.25555 25.9091 1.2385 21.5914 0.681596 15C-0.682117 21.8182 5.1816 29.3182 14.9998 29.3182C24.818 29.3182 28.6362 21.1364 29.318 15C27.7629 21.1364 23.8635 25.9091 14.9998 25.9091Z" fill="#E58196"/>
<circle cx="15" cy="15" r="14.3182" stroke="#E58196" stroke-width="1.36364"/>
<path d="M12.9546 23.1814H15.6819V20.4541H12.9546V23.1814Z" fill="#E58196"/>
<path d="M14.3183 6.81836C11.3047 6.81836 8.86377 9.25927 8.86377 12.2729H11.591C11.591 10.7729 12.8183 9.54563 14.3183 9.54563C15.8183 9.54563 17.0456 10.7729 17.0456 12.2729C17.0456 15.0002 12.9547 14.6593 12.9547 19.0911H15.682C15.682 16.0229 19.7729 15.682 19.7729 12.2729C19.7729 9.25927 17.332 6.81836 14.3183 6.81836Z" fill="#E58196"/>
</svg>
