<svg width="150" height="150" viewBox="0 0 150 150" fill="none" xmlns="http://www.w3.org/2000/svg">
<path d="M75.0001 149.974C60.1665 149.974 45.666 145.576 33.3323 137.337C20.9986 129.097 11.3856 117.386 5.70906 103.683C0.0324859 89.9813 -1.45276 74.9039 1.44115 60.3578C4.33506 45.8117 11.4782 32.4503 21.9671 21.9632C36.0323 7.90041 55.1089 0 75.0001 0C94.8913 0 113.968 7.90041 128.033 21.9632C142.098 36.026 150 55.0993 150 74.9871C150 94.8749 142.098 113.948 128.033 128.011C121.085 134.996 112.82 140.534 103.717 144.304C94.6137 148.073 84.8531 150.001 75.0001 149.974Z" fill="url(#paint0_linear)"/>
<path d="M127.977 21.9055C124.189 18.125 120.011 14.7571 115.513 11.8584C121.611 25.7198 123.379 41.0997 120.584 55.9827C117.789 70.8656 110.563 84.5573 99.8517 95.2634C87.7436 107.335 71.876 114.911 54.875 116.738C37.874 118.565 20.7586 114.533 6.36133 105.31C10.8162 115.39 17.4377 124.364 25.7548 131.595C34.072 138.826 43.8805 144.135 54.4828 147.146C65.0851 150.157 76.2207 150.795 87.0976 149.015C97.9745 147.235 108.326 143.081 117.415 136.847C126.504 130.614 134.107 122.455 139.685 112.95C145.262 103.446 148.676 92.8292 149.685 81.8556C150.693 70.8821 149.271 59.8212 145.519 49.4596C141.767 39.098 135.777 29.6902 127.977 21.9055Z" fill="#FFB74D" fill-opacity="0.4"/>
<path d="M29.7812 89.06C33.6644 89.06 36.8124 85.9126 36.8124 82.03C36.8124 78.1474 33.6644 75 29.7812 75C25.898 75 22.75 78.1474 22.75 82.03C22.75 85.9126 25.898 89.06 29.7812 89.06Z" fill="#FFE4C0"/>
<path d="M120.219 89.06C124.102 89.06 127.25 85.9126 127.25 82.03C127.25 78.1474 124.102 75 120.219 75C116.335 75 113.188 78.1474 113.188 82.03C113.188 85.9126 116.335 89.06 120.219 89.06Z" fill="#FFE4C0"/>
<rect x="59" y="103" width="35" height="4" rx="2" fill="#EF5350"/>
<path d="M55.7646 64.3118C56.9934 68.8602 54.303 73.5434 49.7554 74.772C45.2078 76.0006 40.5251 73.3094 39.2963 68.761C38.0674 64.2126 40.7578 59.5294 45.3054 58.3008C49.853 57.0722 54.5358 59.7634 55.7646 64.3118Z" fill="#616161"/>
<path d="M43.7187 63.7357C45.2357 64.1422 46.1359 65.7014 45.7294 67.2184C45.323 68.7354 43.7637 69.6356 42.2467 69.2291C40.7298 68.8227 39.8295 67.2634 40.236 65.7464C40.6425 64.2295 42.2017 63.3292 43.7187 63.7357Z" fill="white"/>
<path d="M42.8488 73.6608C43.0738 73.6188 43.2986 73.5706 43.5233 73.5099C45.1103 73.0823 46.5398 72.2049 47.6396 70.9834C48.7394 69.762 49.4626 68.2485 49.7221 66.6253C49.9816 65.0021 49.7663 63.3384 49.1022 61.8347C48.4381 60.331 47.3534 59.0513 45.9789 58.1499C47.3512 57.8945 48.7652 57.9798 50.0968 58.3984C51.4285 58.817 52.6371 59.5561 53.6166 60.5507C54.5962 61.5454 55.3167 62.7653 55.715 64.1033C56.1132 65.4414 56.1771 66.8567 55.9009 68.2251C55.6248 69.5936 55.0171 70.8733 54.1311 71.952C53.2451 73.0307 52.1079 73.8754 50.8194 74.412C49.5308 74.9486 48.1303 75.1608 46.7406 75.0298C45.3509 74.8988 44.0145 74.4287 42.8488 73.6608Z" fill="#424242"/>
<path d="M106.569 70.5071C108.765 66.3386 107.166 61.1799 102.998 58.9848C98.8303 56.7896 93.6719 58.3893 91.4763 62.5578C89.2808 66.7263 90.8796 71.885 95.0473 74.0801C99.2151 76.2753 104.373 74.6756 106.569 70.5071Z" fill="#616161"/>
<path d="M95.0229 69.9943C96.5814 69.8007 97.6878 68.3804 97.4942 66.8219C97.3006 65.2635 95.8803 64.157 94.3218 64.3506C92.7634 64.5442 91.6569 65.9646 91.8505 67.523C92.0441 69.0815 93.4645 70.1879 95.0229 69.9943Z" fill="white"/>
<path d="M96.0164 58.5551C96.2267 58.6454 96.4354 58.7417 96.6414 58.8502C98.096 59.6151 99.2985 60.7843 100.104 62.217C100.909 63.6498 101.283 65.2849 101.181 66.9254C101.078 68.566 100.504 70.142 99.5264 71.4636C98.5489 72.7852 97.2103 73.7961 95.6717 74.3744C96.9546 74.9242 98.3529 75.1508 99.7439 75.0342C101.135 74.9176 102.476 74.4613 103.65 73.7055C104.823 72.9497 105.794 71.9174 106.475 70.6991C107.157 69.4809 107.529 68.114 107.56 66.7184C107.59 65.3227 107.278 63.941 106.65 62.6944C106.022 61.4479 105.097 60.3745 103.958 59.5686C102.818 58.7627 101.498 58.2489 100.113 58.0722C98.7288 57.8955 97.322 58.0613 96.0164 58.5551Z" fill="#424242"/>
<path d="M92.0208 51.7048C96.0391 50.9453 102.039 49.9448 108.259 53.903" stroke="#424242" stroke-width="3" stroke-linecap="round"/>
<path d="M55.238 51.7048C51.2197 50.9453 45.2196 49.9448 38.9999 53.903" stroke="#424242" stroke-width="3" stroke-linecap="round"/>
<defs>
<linearGradient id="paint0_linear" x1="57.4997" y1="10.9981" x2="118.358" y2="131.509" gradientUnits="userSpaceOnUse">
<stop stop-color="#FFDF8C"/>
<stop offset="1" stop-color="#FFC163"/>
</linearGradient>
</defs>
</svg>
