<svg width="150" height="150" viewBox="0 0 150 150" fill="none" xmlns="http://www.w3.org/2000/svg">
<path d="M75.0001 149.974C60.1665 149.974 45.666 145.576 33.3323 137.336C20.9986 129.097 11.3856 117.385 5.70906 103.683C0.0324859 89.9811 -1.45276 74.9037 1.44115 60.3577C4.33506 45.8116 11.4782 32.4503 21.9671 21.9632C36.0323 7.90039 55.1089 0 75.0001 0C94.8913 0 113.968 7.90039 128.033 21.9632C142.098 36.026 150 55.0992 150 74.987C150 94.8747 142.098 113.948 128.033 128.011C121.085 134.996 112.82 140.533 103.717 144.303C94.6137 148.073 84.8531 150.001 75.0001 149.974Z" fill="url(#paint0_linear)"/>
<path d="M127.977 21.9054C132.475 24.8041 124.19 18.1249 127.977 21.9054C134.075 35.7667 131.794 84.3891 102.5 105.31C70.9997 127.806 26.3973 123.203 12 113.98C16.4549 124.059 17.4381 124.364 25.7552 131.595C34.0724 138.825 43.8809 144.135 54.4832 147.146C65.0855 150.157 76.2211 150.795 87.098 149.015C97.9749 147.235 108.326 143.08 117.415 136.847C126.504 130.614 134.108 122.455 139.685 112.95C145.262 103.446 148.677 92.829 149.685 81.8554C150.694 70.8819 149.271 59.821 145.519 49.4594C141.767 39.0979 135.778 29.6901 127.977 21.9054Z" fill="#FFB74D" fill-opacity="0.7"/>
<path d="M117.031 98.0449C120.914 98.0449 124.062 94.8974 124.062 91.0149C124.062 87.1323 120.914 83.9849 117.031 83.9849C113.148 83.9849 110 87.1323 110 91.0149C110 94.8974 113.148 98.0449 117.031 98.0449Z" fill="#FFE4C0"/>
<path d="M32.0312 98.0449C35.9144 98.0449 39.0624 94.8974 39.0624 91.0149C39.0624 87.1323 35.9144 83.9849 32.0312 83.9849C28.148 83.9849 25 87.1323 25 91.0149C25 94.8974 28.148 98.0449 32.0312 98.0449Z" fill="#FFE4C0"/>
<path d="M84.3122 125.291H65.5622C64.9406 125.291 64.3445 125.044 63.905 124.605C63.4654 124.165 63.2185 123.569 63.2185 122.947C63.2185 122.326 63.4654 121.73 63.905 121.29C64.3445 120.85 64.9406 120.604 65.5622 120.604H84.3122C84.9338 120.604 85.5299 120.85 85.9694 121.29C86.409 121.73 86.6559 122.326 86.6559 122.947C86.6559 123.569 86.409 124.165 85.9694 124.605C85.5299 125.044 84.9338 125.291 84.3122 125.291Z" fill="#FFB74D"/>
<path d="M103.252 106.981C103.252 106.981 93.5847 97.9824 76.8873 97.9824C57.5535 97.9824 48.7654 106.981 48.7654 106.981" stroke="#EF5350" stroke-width="5" stroke-linecap="round" stroke-linejoin="round"/>
<path d="M49.7944 74.0493C45.9112 74.0493 42.7632 70.9018 42.7632 67.0193C42.7632 63.1367 45.9112 59.9893 49.7944 59.9893C53.6777 59.9893 56.8257 63.1367 56.8257 67.0193C56.8257 70.9018 53.6777 74.0493 49.7944 74.0493Z" fill="#616161"/>
<path d="M52.1382 67.0205C50.8438 67.0205 49.7944 65.9712 49.7944 64.6768C49.7944 63.3823 50.8438 62.333 52.1382 62.333C53.4326 62.333 54.4819 63.3823 54.4819 64.6768C54.4819 65.9712 53.4326 67.0205 52.1382 67.0205Z" fill="white"/>
<path d="M45.1321 61.7637C45.1172 61.9517 45.1072 62.1409 45.1072 62.3328C45.1063 63.6875 45.4971 65.0135 46.2326 66.1512C46.9681 67.2888 48.0169 68.1897 49.2527 68.7451C50.4884 69.3005 51.8584 69.4868 53.1977 69.2816C54.5369 69.0765 55.7883 68.4885 56.801 67.5886C56.7092 68.7354 56.3374 69.8421 55.7181 70.8117C55.0987 71.7813 54.2509 72.5841 53.2489 73.1497C52.2469 73.7153 51.1213 74.0264 49.9711 74.0556C48.8208 74.0849 47.6809 73.8315 46.6514 73.3176C45.6219 72.8037 44.7343 72.045 44.0665 71.1082C43.3986 70.1713 42.971 69.0849 42.821 67.9443C42.671 66.8036 42.8033 65.6436 43.2062 64.566C43.6092 63.4884 44.2705 62.5262 45.1321 61.7637Z" fill="#424242"/>
<path d="M101.283 74.0493C105.166 74.0493 108.314 70.9018 108.314 67.0193C108.314 63.1367 105.166 59.9893 101.283 59.9893C97.3999 59.9893 94.252 63.1367 94.252 67.0193C94.252 70.9018 97.3999 74.0493 101.283 74.0493Z" fill="#616161"/>
<path d="M98.9394 67.0205C100.234 67.0205 101.283 65.9712 101.283 64.6768C101.283 63.3823 100.234 62.333 98.9394 62.333C97.645 62.333 96.5957 63.3823 96.5957 64.6768C96.5957 65.9712 97.645 67.0205 98.9394 67.0205Z" fill="white"/>
<path d="M105.945 61.7637C105.96 61.9517 105.97 62.1409 105.97 62.3328C105.971 63.6875 105.581 65.0135 104.845 66.1512C104.11 67.2888 103.061 68.1897 101.825 68.7451C100.589 69.3005 99.2192 69.4868 97.8799 69.2816C96.5407 69.0765 95.2893 68.4885 94.2766 67.5886C94.3684 68.7354 94.7403 69.8421 95.3596 70.8117C95.9789 71.7813 96.8268 72.5841 97.8288 73.1497C98.8308 73.7153 99.9563 74.0264 101.107 74.0556C102.257 74.0849 103.397 73.8315 104.426 73.3176C105.456 72.8037 106.343 72.045 107.011 71.1082C107.679 70.1713 108.107 69.0849 108.257 67.9443C108.407 66.8036 108.274 65.6436 107.871 64.566C107.468 63.4884 106.807 62.5262 105.945 61.7637Z" fill="#424242"/>
<path d="M35.6484 69.4878L56.8375 55.9902" stroke="#424242" stroke-width="5" stroke-linecap="round" stroke-linejoin="round"/>
<path d="M115.36 69.4878L94.1708 55.9902" stroke="#424242" stroke-width="5" stroke-linecap="round" stroke-linejoin="round"/>
<defs>
<linearGradient id="paint0_linear" x1="57.4997" y1="10.998" x2="101.487" y2="110.486" gradientUnits="userSpaceOnUse">
<stop stop-color="#FFDF8C"/>
<stop offset="1" stop-color="#FFC163"/>
</linearGradient>
</defs>
</svg>
