<svg width="150" height="151" viewBox="0 0 150 151" fill="none" xmlns="http://www.w3.org/2000/svg">
<path d="M75.0004 150C60.1668 150 45.6662 145.602 33.3325 137.361C20.9987 129.12 11.3857 117.406 5.70909 103.702C0.032486 89.9971 -1.45276 74.917 1.44116 60.3684C4.33508 45.8198 11.4782 32.456 21.9672 21.9671C36.0325 7.90179 55.1091 0 75.0004 0C94.8917 0 113.968 7.90179 128.034 21.9671C142.099 36.0323 150.001 55.109 150.001 75.0003C150.001 94.8916 142.099 113.968 128.034 128.033C121.085 135.02 112.82 140.558 103.717 144.329C94.6141 148.099 84.8535 150.027 75.0004 150Z" fill="url(#paint0_linear)"/>
<path d="M127.977 21.9095C132.476 24.8087 124.19 18.1284 127.977 21.9095C134.075 35.7733 131.795 84.4043 102.5 105.329C71 127.829 26.3974 123.225 12 114C16.4549 124.081 17.4381 124.386 25.7553 131.618C34.0725 138.85 43.881 144.161 54.4834 147.172C65.0857 150.184 76.2214 150.822 87.0983 149.041C97.9753 147.261 108.326 143.106 117.415 136.872C126.504 130.637 134.108 122.477 139.686 112.97C145.263 103.464 148.677 92.8457 149.686 81.8702C150.694 70.8947 149.272 59.8319 145.52 49.4684C141.768 39.105 135.778 29.6956 127.977 21.9095Z" fill="#FFB74D" fill-opacity="0.7"/>
<path d="M56.1875 69.0625C55.5659 69.0625 54.9698 68.8156 54.5302 68.376C54.0907 67.9365 53.8438 67.3404 53.8438 66.7188C53.8438 64.8539 53.103 63.0655 51.7843 61.7469C50.4657 60.4283 48.6773 59.6875 46.8125 59.6875C44.9477 59.6875 43.1593 60.4283 41.8407 61.7469C40.522 63.0655 39.7812 64.8539 39.7812 66.7188C39.7812 67.3404 39.5343 67.9365 39.0948 68.376C38.6552 68.8156 38.0591 69.0625 37.4375 69.0625C36.8159 69.0625 36.2198 68.8156 35.7802 68.376C35.3407 67.9365 35.0938 67.3404 35.0938 66.7188C35.0938 63.6107 36.3284 60.63 38.5261 58.4323C40.7238 56.2347 43.7045 55 46.8125 55C49.9205 55 52.9012 56.2347 55.0989 58.4323C57.2966 60.63 58.5312 63.6107 58.5312 66.7188C58.5312 67.3404 58.2843 67.9365 57.8448 68.376C57.4052 68.8156 56.8091 69.0625 56.1875 69.0625Z" fill="#424242"/>
<path d="M112.438 69.0625C111.816 69.0625 111.22 68.8156 110.78 68.376C110.341 67.9365 110.094 67.3404 110.094 66.7188C110.094 64.8539 109.353 63.0655 108.034 61.7469C106.716 60.4283 104.927 59.6875 103.062 59.6875C101.198 59.6875 99.4093 60.4283 98.0907 61.7469C96.772 63.0655 96.0312 64.8539 96.0312 66.7188C96.0312 67.3404 95.7843 67.9365 95.3448 68.376C94.9052 68.8156 94.3091 69.0625 93.6875 69.0625C93.0659 69.0625 92.4698 68.8156 92.0302 68.376C91.5907 67.9365 91.3438 67.3404 91.3438 66.7188C91.3438 63.6107 92.5784 60.63 94.7761 58.4323C96.9738 56.2347 99.9545 55 103.062 55C106.171 55 109.151 56.2347 111.349 58.4323C113.547 60.63 114.781 63.6107 114.781 66.7188C114.781 67.3404 114.534 67.9365 114.095 68.376C113.655 68.8156 113.059 69.0625 112.438 69.0625Z" fill="#424242"/>
<path d="M128.844 73.75C132.727 73.75 135.875 70.602 135.875 66.7188C135.875 62.8355 132.727 59.6875 128.844 59.6875C124.96 59.6875 121.812 62.8355 121.812 66.7188C121.812 70.602 124.96 73.75 128.844 73.75Z" fill="#FFE4C0"/>
<path d="M21.0312 73.75C24.9145 73.75 28.0625 70.602 28.0625 66.7188C28.0625 62.8355 24.9145 59.6875 21.0312 59.6875C17.148 59.6875 14 62.8355 14 66.7188C14 70.602 17.148 73.75 21.0312 73.75Z" fill="#FFE4C0"/>
<path d="M74.9375 115.938C63.1502 115.938 52.0449 112.349 43.6675 105.833C35.1157 99.182 30.4062 90.2849 30.4062 80.7812C30.4062 80.1596 30.6532 79.5635 31.0927 79.124C31.5323 78.6844 32.1284 78.4375 32.75 78.4375C33.3716 78.4375 33.9677 78.6844 34.4073 79.124C34.8468 79.5635 35.0938 80.1596 35.0938 80.7812C35.0938 97.5818 52.9675 111.25 74.9375 111.25C96.9075 111.25 114.781 97.5818 114.781 80.7812C114.781 80.1596 115.028 79.5635 115.468 79.124C115.907 78.6844 116.503 78.4375 117.125 78.4375C117.747 78.4375 118.343 78.6844 118.782 79.124C119.222 79.5635 119.469 80.1596 119.469 80.7812C119.469 90.2849 114.759 99.182 106.208 105.833C97.8301 112.349 86.7248 115.938 74.9375 115.938Z" fill="#EF5350"/>
<path d="M126.5 86.6408C117.686 86.6408 113.506 80.1629 112.528 76.7384C112.443 76.4425 112.418 76.1328 112.453 75.827C112.488 75.5212 112.583 75.2253 112.732 74.9561C112.882 74.687 113.083 74.45 113.324 74.2586C113.565 74.0671 113.841 73.925 114.137 73.8404C114.433 73.7557 114.742 73.7302 115.048 73.7652C115.354 73.8003 115.65 73.8952 115.919 74.0446C116.188 74.1941 116.425 74.395 116.617 74.636C116.808 74.877 116.95 75.1534 117.035 75.4493C117.11 75.7004 119.077 81.9533 126.5 81.9533C127.122 81.9533 127.718 82.2002 128.157 82.6397C128.597 83.0793 128.844 83.6754 128.844 84.297C128.844 84.9186 128.597 85.5147 128.157 85.9543C127.718 86.3938 127.122 86.6408 126.5 86.6408Z" fill="#EF5350"/>
<path d="M23.375 86.6407C22.7534 86.6407 22.1573 86.3938 21.7177 85.9542C21.2782 85.5147 21.0312 84.9185 21.0312 84.2969C21.0312 83.6753 21.2782 83.0792 21.7177 82.6397C22.1573 82.2001 22.7534 81.9532 23.375 81.9532C30.7979 81.9532 32.7646 75.701 32.8446 75.4346C32.9287 75.1373 33.0708 74.8596 33.2627 74.6174C33.4545 74.3753 33.6923 74.1734 33.9625 74.0235C34.2326 73.8735 34.5298 73.7785 34.8368 73.7438C35.1438 73.7091 35.4546 73.7355 35.7514 73.8214C36.0482 73.9073 36.3251 74.051 36.5661 74.2443C36.8071 74.4376 37.0076 74.6766 37.1559 74.9477C37.3042 75.2187 37.3975 75.5164 37.4303 75.8236C37.4632 76.1308 37.4349 76.4415 37.3473 76.7378C36.3688 80.1629 32.189 86.6407 23.375 86.6407Z" fill="#EF5350"/>
<path d="M84.3125 125.312H65.5625C64.9409 125.312 64.3448 125.066 63.9052 124.626C63.4657 124.186 63.2188 123.59 63.2188 122.969C63.2188 122.347 63.4657 121.751 63.9052 121.311C64.3448 120.872 64.9409 120.625 65.5625 120.625H84.3125C84.9341 120.625 85.5302 120.872 85.9698 121.311C86.4093 121.751 86.6562 122.347 86.6562 122.969C86.6562 123.59 86.4093 124.186 85.9698 124.626C85.5302 125.066 84.9341 125.312 84.3125 125.312Z" fill="#FFB74D"/>
<defs>
<linearGradient id="paint0_linear" x1="57.5" y1="11" x2="101.5" y2="110.5" gradientUnits="userSpaceOnUse">
<stop stop-color="#FFDF8C"/>
<stop offset="1" stop-color="#FFC163"/>
</linearGradient>
</defs>
</svg>
