<svg width="150" height="150" viewBox="0 0 150 150" fill="none" xmlns="http://www.w3.org/2000/svg">
<path d="M75.0004 149.974C60.1668 149.974 45.6662 145.576 33.3325 137.336C20.9987 129.097 11.3857 117.385 5.70909 103.683C0.032486 89.9812 -1.45276 74.9038 1.44116 60.3577C4.33508 45.8117 11.4782 32.4503 21.9672 21.9632C36.0325 7.9004 55.1091 0 75.0004 0C94.8917 0 113.968 7.9004 128.034 21.9632C142.099 36.026 150.001 55.0992 150.001 74.987C150.001 94.8748 142.099 113.948 128.034 128.011C121.085 134.996 112.82 140.533 103.717 144.303C94.6141 148.073 84.8535 150.001 75.0004 149.974Z" fill="url(#paint0_linear)"/>
<path d="M127.978 21.9054C124.19 18.125 120.012 14.7571 115.514 11.8584C121.612 25.7197 123.38 41.0997 120.585 55.9826C117.79 70.8656 110.564 84.5572 99.8525 95.2633C87.7444 107.335 71.8768 114.911 54.8757 116.738C37.8746 118.565 20.7592 114.533 6.36182 105.31C10.8167 115.39 17.4382 124.364 25.7554 131.595C34.0726 138.826 43.8812 144.135 54.4835 147.146C65.0858 150.157 76.2215 150.795 87.0984 149.015C97.9754 147.235 108.326 143.081 117.416 136.847C126.505 130.614 134.108 122.455 139.686 112.95C145.263 103.446 148.678 92.8291 149.686 81.8556C150.694 70.882 149.272 59.8211 145.52 49.4595C141.768 39.0979 135.778 29.6902 127.978 21.9054Z" fill="#FFB74D" fill-opacity="0.7"/>
<path d="M74.5938 122.291C51.332 122.291 32.4062 103.369 32.4062 80.1111V77.7678C32.4084 75.904 33.1499 74.1171 34.4681 72.7992C35.7862 71.4813 37.5734 70.74 39.4375 70.7378H109.75C111.614 70.74 113.401 71.4813 114.719 72.7992C116.038 74.1171 116.779 75.904 116.781 77.7678V80.1111C116.781 103.369 97.8555 122.291 74.5938 122.291Z" fill="#FC6C69"/>
<path d="M55.8438 66.0512C55.2221 66.0512 54.626 65.8043 54.1865 65.3649C53.7469 64.9254 53.5 64.3294 53.5 63.7079C53.5 61.8434 52.7592 60.0553 51.4406 58.7369C50.122 57.4185 48.3336 56.6779 46.4688 56.6779C44.6039 56.6779 42.8155 57.4185 41.4969 58.7369C40.1783 60.0553 39.4375 61.8434 39.4375 63.7079C39.4375 64.3294 39.1906 64.9254 38.751 65.3649C38.3115 65.8043 37.7154 66.0512 37.0938 66.0512C36.4721 66.0512 35.876 65.8043 35.4365 65.3649C34.9969 64.9254 34.75 64.3294 34.75 63.7079C34.75 60.6004 35.9847 57.6203 38.1823 55.4229C40.38 53.2256 43.3607 51.9912 46.4688 51.9912C49.5768 51.9912 52.5575 53.2256 54.7552 55.4229C56.9529 57.6203 58.1875 60.6004 58.1875 63.7079C58.1875 64.3294 57.9406 64.9254 57.501 65.3649C57.0615 65.8043 56.4654 66.0512 55.8438 66.0512Z" fill="#424242"/>
<path d="M112.094 66.0512C111.472 66.0512 110.876 65.8043 110.436 65.3649C109.997 64.9254 109.75 64.3294 109.75 63.7079C109.75 61.8434 109.009 60.0553 107.691 58.7369C106.372 57.4185 104.584 56.6779 102.719 56.6779C100.854 56.6779 99.0655 57.4185 97.7469 58.7369C96.4283 60.0553 95.6875 61.8434 95.6875 63.7079C95.6875 64.3294 95.4406 64.9254 95.001 65.3649C94.5615 65.8043 93.9654 66.0512 93.3438 66.0512C92.7221 66.0512 92.126 65.8043 91.6865 65.3649C91.2469 64.9254 91 64.3294 91 63.7079C91 60.6004 92.2347 57.6203 94.4323 55.4229C96.63 53.2256 99.6107 51.9912 102.719 51.9912C105.827 51.9912 108.807 53.2256 111.005 55.4229C113.203 57.6203 114.438 60.6004 114.438 63.7079C114.438 64.3294 114.191 64.9254 113.751 65.3649C113.311 65.8043 112.715 66.0512 112.094 66.0512Z" fill="#424242"/>
<path d="M45.8374 110.943C52.1058 98.1293 62.5159 87.8052 75.3828 81.6424C88.2496 75.4796 102.82 73.8386 116.736 76.9851C116.541 75.268 115.722 73.6825 114.434 72.5304C113.145 71.3784 111.478 70.7403 109.75 70.7378H39.4375C37.5734 70.74 35.7862 71.4813 34.4681 72.7992C33.1499 74.1171 32.4084 75.904 32.4063 77.7678V80.1111C32.4039 85.8976 33.5954 91.6223 35.9065 96.9274C38.2175 102.233 41.5982 107.004 45.8374 110.943Z" fill="#EF5350"/>
<path d="M23.0312 75.4248C26.9145 75.4248 30.0625 72.2773 30.0625 68.3948C30.0625 64.5122 26.9145 61.3647 23.0312 61.3647C19.148 61.3647 16 64.5122 16 68.3948C16 72.2773 19.148 75.4248 23.0312 75.4248Z" fill="#FFE4C0"/>
<path d="M126.156 75.4248C130.04 75.4248 133.188 72.2773 133.188 68.3948C133.188 64.5122 130.04 61.3647 126.156 61.3647C122.273 61.3647 119.125 64.5122 119.125 68.3948C119.125 72.2773 122.273 75.4248 126.156 75.4248Z" fill="#FFE4C0"/>
<defs>
<linearGradient id="paint0_linear" x1="57.5" y1="10.9981" x2="101.487" y2="110.486" gradientUnits="userSpaceOnUse">
<stop stop-color="#FFDF8C"/>
<stop offset="1" stop-color="#FFC163"/>
</linearGradient>
</defs>
</svg>
