<svg width="150" height="150" viewBox="0 0 150 150" fill="none" xmlns="http://www.w3.org/2000/svg">
<path d="M75.0001 149.974C60.1665 149.974 45.666 145.576 33.3323 137.336C20.9986 129.097 11.3856 117.385 5.70906 103.683C0.0324859 89.9811 -1.45276 74.9037 1.44115 60.3577C4.33506 45.8116 11.4782 32.4503 21.9671 21.9632C36.0323 7.90039 55.1089 0 75.0001 0C94.8913 0 113.968 7.90039 128.033 21.9632C142.098 36.026 150 55.0992 150 74.987C150 94.8747 142.098 113.948 128.033 128.011C121.085 134.996 112.82 140.533 103.717 144.303C94.6137 148.073 84.8531 150.001 75.0001 149.974Z" fill="url(#paint0_linear)"/>
<path d="M127.977 21.9054C132.475 24.8041 124.19 18.1249 127.977 21.9054C134.075 35.7667 131.794 84.3891 102.5 105.31C70.9998 127.806 26.3973 123.203 12 113.98C16.4549 124.059 17.4381 124.364 25.7552 131.595C34.0724 138.825 43.8809 144.135 54.4832 147.146C65.0855 150.157 76.2211 150.795 87.098 149.015C97.9749 147.235 108.326 143.08 117.415 136.847C126.504 130.614 134.108 122.455 139.685 112.95C145.263 103.446 148.677 92.829 149.685 81.8554C150.694 70.8819 149.271 59.821 145.519 49.4594C141.767 39.0979 135.778 29.6901 127.977 21.9054Z" fill="#FFB74D" fill-opacity="0.7"/>
<path d="M117.031 99.0449C120.914 99.0449 124.062 95.8974 124.062 92.0149C124.062 88.1323 120.914 84.9849 117.031 84.9849C113.148 84.9849 110 88.1323 110 92.0149C110 95.8974 113.148 99.0449 117.031 99.0449Z" fill="#FFE4C0"/>
<path d="M32.0312 99.0449C35.9145 99.0449 39.0625 95.8974 39.0625 92.0149C39.0625 88.1323 35.9145 84.9849 32.0312 84.9849C28.148 84.9849 25 88.1323 25 92.0149C25 95.8974 28.148 99.0449 32.0312 99.0449Z" fill="#FFE4C0"/>
<path d="M34.6389 70.362C34.6389 70.362 39.892 74.4053 47.5367 71.6481C55.1814 68.891 57.0284 62.2871 57.0284 62.2871" stroke="#424242" stroke-width="5" stroke-linecap="round" stroke-linejoin="round"/>
<path d="M116.468 71.2785C116.468 71.2785 111.215 75.3218 103.57 72.5647C95.9258 69.8075 94.0787 63.2036 94.0787 63.2036" stroke="#424242" stroke-width="5" stroke-linecap="round" stroke-linejoin="round"/>
<path d="M91.1437 102.982C91.1437 102.982 85.7732 97.9824 76.4968 97.9824C65.7558 97.9824 60.8735 102.982 60.8735 102.982" stroke="#EF5350" stroke-width="5" stroke-linecap="round" stroke-linejoin="round"/>
<defs>
<linearGradient id="paint0_linear" x1="57.4997" y1="10.998" x2="101.487" y2="110.486" gradientUnits="userSpaceOnUse">
<stop stop-color="#FFDF8C"/>
<stop offset="1" stop-color="#FFC163"/>
</linearGradient>
</defs>
</svg>
