<svg width="25" height="29" viewBox="0 0 25 29" fill="none" xmlns="http://www.w3.org/2000/svg">
<path d="M16.5938 4.70228C18.9643 4.30354 23.2587 4.10823 23.0001 6.50066C22.9 7.4267 22.3696 8.02355 21.657 8.39574M21.657 8.39574C20.5286 8.98509 18.9434 9.01113 17.8868 8.88891M21.657 8.39574C22.5 8.5 24 8.9067 24 11C24 11.8951 23.616 12.5568 22.7637 12.9268M22.7637 12.9268C21.884 13.3087 20.5054 13.3797 18.5352 13.0759M22.7637 12.9268C24.5 15.5 24.6755 19.2958 16.9177 17.8603C14.7517 17.3593 12.9846 17.1206 11.8584 17.0221C11.3707 16.9795 11.0558 17.4479 11.2697 17.8557C12.6463 20.4808 14.3251 24.831 12.7155 26.5328C11.9166 27.3776 11.0882 27.7873 10.3473 27.9473C8.90979 28.2575 7.74956 27.1564 7.45426 25.8184C7.22335 24.7721 7.02875 23.4199 6.89716 22.047C6.69652 19.9537 3.78015 17.5455 3.01841 16.6641C1.72616 15.1688 0.500361 11.5802 1.4061 5.30029M1.40292 5.30029C1.79333 4.10392 3.01913 3.02745 6.89804 2.30976C13.3629 1.1136 23.4197 -0.81522 21.4197 4.68492" stroke="#E93323" stroke-width="1.80379" stroke-linecap="round" stroke-linejoin="round"/>
</svg>
