<svg width="72" height="72" viewBox="0 0 72 72" fill="none" xmlns="http://www.w3.org/2000/svg">
<path d="M51.0159 11.3595L55.7261 35.959C55.8896 36.8108 55.2826 37.6488 54.3776 37.8224L11.8601 45.9584C10.9551 46.1312 10.0817 45.576 9.91611 44.7243L5.20803 20.1248C5.04531 19.2737 5.65227 18.432 6.55659 18.2621L49.074 10.1261C49.9791 9.9526 50.8524 10.5077 51.0159 11.3595Z" fill="#292B76"/>
<path d="M46.5495 13.0044L9.8252 20.0299L14.2037 42.9177L50.928 35.8922L46.5495 13.0044Z" fill="#C0CDD7"/>
<path d="M30.9507 31.2989H28.1514V57.2966C28.1514 57.2966 39.2617 55.7846 47.4034 59.178L47.3156 33.4402C47.3156 33.4402 33.7465 31.0606 30.9507 31.2989Z" fill="#292B76"/>
<path d="M63.6048 31.2989H66.4006V57.2966C66.4006 57.2966 55.5487 55.7846 47.4062 59.178L47.2363 33.4402C47.2363 33.4402 60.8083 31.0606 63.6048 31.2989Z" fill="#292B76"/>
<path d="M29.6309 55.7947V30.1353C29.6309 30.1353 41.2783 27.9623 47.4919 32.9548L47.4019 58.1433C47.4019 58.1433 44.1173 54.8133 29.6309 55.7947Z" fill="white"/>
<path d="M65.1804 55.7947V30.1353C65.1804 30.1353 53.5329 27.9623 47.3193 32.9548L47.4093 58.1433C47.4093 58.1433 50.6947 54.8133 65.1804 55.7947Z" fill="white"/>
<path d="M47.3193 35.2928V52.76" stroke="#292B76" stroke-miterlimit="10"/>
<path d="M58.2851 38.604H53.0068V59.8202H58.2851V38.604Z" fill="#F24690"/>
<path d="M58.2844 38.6046H53.0068L54.7082 35.6584L55.6456 34.0341L56.5838 35.6584L58.2844 38.6046Z" fill="#F09737"/>
<path d="M56.5836 35.6584H54.708L55.6454 34.0341L56.5836 35.6584Z" fill="#292B76"/>
<path d="M54.4746 56.5086V41.3828" stroke="#292B76" stroke-width="2" stroke-miterlimit="10"/>
<path d="M56.8203 40.6127V57.0438" stroke="#292B76" stroke-width="2" stroke-miterlimit="10"/>
<path d="M53.0066 59.3485H58.2849V61.7634C58.285 62.0108 58.2363 62.2558 58.1417 62.4844C58.0471 62.713 57.9084 62.9207 57.7335 63.0957C57.5586 63.2707 57.3509 63.4095 57.1223 63.5042C56.8938 63.5989 56.6488 63.6476 56.4014 63.6476H54.8894C54.3898 63.6476 53.9108 63.4492 53.5575 63.096C53.2043 62.7427 53.0059 62.2636 53.0059 61.7641V59.3485H53.0066Z" fill="#292B76"/>
<path d="M9.82393 32.0922C10.2709 32.0922 10.6332 31.7299 10.6332 31.2829C10.6332 30.836 10.2709 30.4736 9.82393 30.4736C9.37698 30.4736 9.01465 30.836 9.01465 31.2829C9.01465 31.7299 9.37698 32.0922 9.82393 32.0922Z" fill="white"/>
<path d="M55.6465 29.7739C55.6465 29.7739 60.6771 28.9689 65.18 30.1339V30.7819" stroke="#292B76" stroke-miterlimit="10"/>
</svg>
