<svg width="72" height="72" viewBox="0 0 72 72" fill="none" xmlns="http://www.w3.org/2000/svg">
<path d="M41.8952 53.1407L41.1025 53.5173C40.5572 53.7764 40.3252 54.4283 40.5842 54.9736L42.8559 59.7556C43.1149 60.3008 43.7669 60.5328 44.3121 60.2738L45.1049 59.8972C45.6501 59.6382 45.8822 58.9862 45.6231 58.441L43.3515 53.659C43.0924 53.1138 42.4405 52.8817 41.8952 53.1407Z" fill="#292B76"/>
<path d="M24.4441 53.5137L23.6513 53.1371C23.1061 52.8781 22.4541 53.1101 22.1951 53.6553L19.9234 58.4373C19.6644 58.9826 19.8964 59.6345 20.4416 59.8935L21.2344 60.2701C21.7796 60.5291 22.4316 60.2971 22.6906 59.7519L24.9623 54.9699C25.2213 54.4247 24.9893 53.7727 24.4441 53.5137Z" fill="#292B76"/>
<path d="M50.9142 40.3997C50.9142 50.1917 42.9741 58.134 33.1792 58.134C33.1482 58.134 33.1187 58.134 33.0877 58.134C29.7132 58.1221 26.4128 57.1434 23.5773 55.3138C21.9705 54.2776 20.5415 52.9891 19.3451 51.4978C16.8163 48.3538 15.4404 44.4388 15.4463 40.404C15.4463 30.612 23.3865 22.6711 33.1792 22.6711C35.5082 22.6693 37.8147 23.1265 39.9668 24.0167C42.119 24.9069 44.0745 26.2126 45.7217 27.8591C47.3688 29.5056 48.6752 31.4607 49.5662 33.6126C50.4572 35.7644 50.9153 38.0707 50.9142 40.3997Z" fill="#F24690"/>
<path d="M63.6388 19.6221C62.309 22.8542 60.5205 25.9661 59.0251 29.1758L59.0056 29.2017C61.4003 28.5595 62.1225 28.5732 64.703 28.0908L64.7123 28.1585C65.0371 29.2975 65.1206 30.7029 65.1847 31.8089L65.1911 31.8549C62.063 32.1166 58.9517 32.5507 55.8715 33.1553C55.3545 32.1372 55.4395 30.7793 55.1515 29.5409C56.0551 26.4153 58.0934 22.9428 59.5139 20.1852C58.1215 20.1967 55.0766 20.5135 53.9836 20.669C53.5315 20.106 53.6531 18.509 53.2211 17.5939V17.5716C53.2106 17.5379 53.19 17.5082 53.1621 17.4866C56.2401 16.7472 59.6371 16.4505 63.1247 15.9746C63.4523 17.136 63.4509 18.437 63.6388 19.5955V19.6221Z" fill="#292B76"/>
<path d="M65.1599 38.6219C63.2656 40.5227 61.0819 42.2025 59.0767 44.0385L59.0551 44.0507C60.9422 44.3005 61.4505 44.5223 63.4219 44.9399L63.4082 44.991C63.3031 45.8939 62.9488 46.9156 62.6687 47.7184L62.6601 47.7529C60.3642 47.0191 58.0295 46.4124 55.6667 45.9357C55.5998 45.0616 56.0613 44.1227 56.2183 43.1601C57.7785 41.2096 60.2503 39.3477 62.0654 37.8104C61.0747 37.4087 58.8254 36.7369 58.0017 36.5252C57.8469 35.9932 58.4035 34.8959 58.366 34.1204L58.3703 34.1039C58.3728 34.0769 58.367 34.0498 58.3538 34.0261C60.7543 34.4077 63.2498 35.1976 65.8619 35.8888C65.7525 36.8089 65.3687 37.732 65.1607 38.6082L65.1599 38.6219Z" fill="#292B76"/>
<path d="M56.6412 51.2747C55.7181 53.0128 54.5452 54.6587 53.5308 56.3745L53.5185 56.3881C54.8959 56.1599 55.2998 56.2074 56.7722 56.0785V56.1174C56.8917 56.7734 56.8608 57.5653 56.8363 58.1889V58.2148C55.0696 58.189 53.3029 58.2611 51.5443 58.4308C51.311 57.8318 51.4334 57.0743 51.3376 56.3658C52.0159 54.6637 53.3493 52.8299 54.2961 51.3625C53.5156 51.2905 51.792 51.3028 51.1706 51.3301C50.9488 50.9896 51.1044 50.1018 50.9128 49.5654V49.5525C50.9088 49.5332 50.899 49.5156 50.8848 49.5021C52.6502 49.2565 54.5697 49.2767 56.5497 49.204C56.6692 49.8729 56.5972 50.6015 56.639 51.261L56.6412 51.2747Z" fill="#292B76"/>
<path d="M33.062 42.6904C33.8816 42.6904 34.546 42.026 34.546 41.2065C34.546 40.3869 33.8816 39.7225 33.062 39.7225C32.2425 39.7225 31.5781 40.3869 31.5781 41.2065C31.5781 42.026 32.2425 42.6904 33.062 42.6904Z" fill="#292B76"/>
<path d="M33.0605 40.4012L36.6562 32.7289" stroke="#292B76" stroke-width="2" stroke-linecap="round" stroke-linejoin="round"/>
<path d="M33.0605 41.2063L38.5225 40.6779" stroke="#292B76" stroke-width="2" stroke-linecap="round" stroke-linejoin="round"/>
<path d="M18.8242 19.0429C18.8242 19.0429 21.4263 11.6643 33.0637 11.6643C44.701 11.6643 47.5393 19.0429 47.5393 19.0429" stroke="#292B76" stroke-width="2" stroke-linecap="round" stroke-linejoin="round"/>
<path d="M28.0586 20.2789C28.1067 20.345 28.1405 20.4203 28.1579 20.5002C28.1753 20.58 28.176 20.6626 28.1598 20.7427C28.1436 20.8227 28.111 20.8986 28.0639 20.9654C28.0169 21.0322 27.9565 21.0885 27.8865 21.1307L25.8367 22.3713L16.7618 27.8642C16.692 27.9066 16.6141 27.934 16.5332 27.9448C16.4522 27.9555 16.3699 27.9493 16.2914 27.9266C16.2129 27.9038 16.1401 27.865 16.0774 27.8126C16.0147 27.7603 15.9636 27.6954 15.9273 27.6222C15.1473 26.0252 14.9929 24.1941 15.4944 22.489C15.9959 20.7838 17.1171 19.3279 18.6375 18.4075C20.158 17.487 21.9677 17.1686 23.7111 17.5148C25.4544 17.8609 27.0052 18.8467 28.0586 20.2782V20.2789Z" fill="#F49521"/>
<path d="M26.1151 20.6785C25.769 20.3107 25.3752 19.9908 24.9443 19.7274" stroke="white" stroke-width="2" stroke-linecap="round" stroke-linejoin="round"/>
<path d="M19.9775 19.0415C19.9775 19.0415 21.7387 18.5375 23.6582 19.1416" stroke="white" stroke-width="2" stroke-linecap="round" stroke-linejoin="round"/>
<path d="M50.5299 26.7033C50.4977 26.7785 50.4503 26.8462 50.3905 26.9021C50.3308 26.958 50.2601 27.0009 50.1829 27.028C50.1057 27.0551 50.0237 27.0658 49.9421 27.0595C49.8606 27.0532 49.7812 27.0299 49.7091 26.9913L47.5988 25.8566L38.2539 20.8324C38.1818 20.7939 38.1186 20.7408 38.0682 20.6765C38.0177 20.6122 37.9812 20.5382 37.9609 20.459C37.9406 20.3799 37.9369 20.2974 37.9502 20.2168C37.9634 20.1362 37.9933 20.0592 38.0379 19.9907C39.0164 18.5067 40.5147 17.4425 42.2381 17.0072C43.9616 16.5719 45.7855 16.7971 47.3514 17.6385C48.9172 18.4799 50.1116 19.8766 50.6998 21.554C51.288 23.2315 51.2274 25.0683 50.5299 26.7033Z" fill="#F49521"/>
<path d="M49.1973 25.2329C49.3392 24.7478 49.4155 24.2458 49.4241 23.7404" stroke="white" stroke-width="2" stroke-linecap="round" stroke-linejoin="round"/>
<path d="M47.4863 19.1174C47.4863 19.1174 48.8147 20.3767 49.2705 22.3387" stroke="white" stroke-width="2" stroke-linecap="round" stroke-linejoin="round"/>
</svg>
